<?xml version="1.0" encoding="UTF-8"?>
<svg version="1.1" xmlns="http://www.w3.org/2000/svg" width="937" height="790">
<path d="M0 0 C309.21 0 618.42 0 937 0 C937 260.7 937 521.4 937 790 C627.79 790 318.58 790 0 790 C0 529.3 0 268.6 0 0 Z " fill="#FDFDFD" transform="translate(0,0)"/>
<path d="M0 0 C309.21 0 618.42 0 937 0 C937 260.7 937 521.4 937 790 C627.79 790 318.58 790 0 790 C0 529.3 0 268.6 0 0 Z M671.875 68.625 C653.2345144 91.84225523 642 120.10623931 642 150 C574.68 150 507.36 150 438 150 C437.67 147.36 437.34 144.72 437 142 C436.21978294 139.40557579 435.41195574 136.95240892 434.4375 134.4375 C434.17356445 133.75059082 433.90962891 133.06368164 433.63769531 132.35595703 C420.46372445 99.08596934 394.79203611 73.10678214 362.1015625 58.66796875 C357.56498715 56.76305296 352.93406411 55.18762511 348.25 53.6875 C347.11667236 53.32374268 347.11667236 53.32374268 345.96044922 52.95263672 C335.02691123 49.60611795 324.47941581 48.65137871 313.09545898 48.68432617 C310.83332355 48.68747105 308.57252034 48.6639989 306.31054688 48.63867188 C293.24394299 48.58115987 280.60203685 50.31412679 268.1875 54.5625 C267.45450684 54.81153076 266.72151367 55.06056152 265.96630859 55.31713867 C245.42639991 62.6515778 227.97122384 75.26102109 213 91 C212.34644531 91.6703125 211.69289062 92.340625 211.01953125 93.03125 C192.44536519 112.72434172 178.95677128 141.80361146 178.796875 169.08203125 C178.79117493 169.85447678 178.78547485 170.6269223 178.77960205 171.42277527 C178.77018722 173.05747121 178.76363211 174.69218582 178.75976562 176.3269043 C178.75017826 178.76712722 178.71917252 181.20646292 178.6875 183.64648438 C178.59150627 197.64187332 179.96312636 211.362341 185.125 224.5 C185.57178101 225.66982422 185.57178101 225.66982422 186.02758789 226.86328125 C192.78967171 244.02230718 202.31228843 258.61329931 215 272 C215.78246094 272.8353125 216.56492188 273.670625 217.37109375 274.53125 C234.03178217 291.80505175 255.65121011 303.71626626 279 309 C279.66 309 280.32 309 281 309 C280.67509929 309.50029724 280.35019857 310.00059448 280.01545238 310.51605225 C278.62630214 313.91412063 278.72740786 317.13157928 278.75276184 320.74316406 C278.75034743 321.52780155 278.74793301 322.31243904 278.74544543 323.12085342 C278.73980543 325.75252837 278.74847383 328.38396092 278.75708008 331.015625 C278.75600727 332.90132717 278.75406861 334.78702901 278.75132751 336.67272949 C278.74647584 341.79659723 278.75413896 346.92037801 278.76428056 352.04423523 C278.77305634 357.40221052 278.7713037 362.76018305 278.7709198 368.11816406 C278.77185669 377.11655128 278.78054392 386.1149048 278.79418945 395.11328125 C278.80991522 405.52200799 278.81518756 415.93069782 278.8144539 426.33943558 C278.81384383 436.34539554 278.81894735 446.35134346 278.82724571 456.3572998 C278.83077938 460.61877537 278.83260908 464.88024667 278.83313942 469.14172363 C278.83414297 474.15838475 278.84024064 479.17501479 278.85030556 484.19166565 C278.85322971 486.0347525 278.8544561 487.87784293 278.85387802 489.72093201 C278.85338824 492.23293316 278.85903413 494.74484694 278.86628723 497.25683594 C278.86396433 498.35585928 278.86396433 498.35585928 278.8615945 499.47708511 C278.87745577 502.79405943 278.97143826 505.82828091 280 509 C278.2675 509.061875 278.2675 509.061875 276.5 509.125 C255.68070615 511.56095482 236.13923258 525.39709546 221 539 C220.12021484 539.78697266 220.12021484 539.78697266 219.22265625 540.58984375 C194.38048553 563.17875635 179.57968418 596.12489448 177.87011719 629.53857422 C176.56705889 666.03078767 188.82729182 700.45017104 213.55859375 727.47265625 C234.9619839 750.15212928 265.36810288 767.06311874 296.97789001 768.50561523 C300.90372976 768.60852913 304.82331236 768.60580357 308.75 768.5625 C309.98692596 768.55660858 309.98692596 768.55660858 311.24884033 768.55059814 C324.68374418 768.46071412 337.16913335 767.22274589 350 763 C351.0828125 762.66307129 351.0828125 762.66307129 352.1875 762.31933594 C374.24792318 755.35448726 399.80241729 739.9784717 412.69333541 720.43245947 C415 718 415 718 417.95391858 717.37604749 C419.11651759 717.37653455 420.27911659 717.37702161 421.47694588 717.37752342 C422.12858916 717.37096462 422.78023244 717.36440581 423.45162249 717.35764825 C425.6449595 717.34168916 427.83652774 717.36147521 430.02981567 717.38095093 C431.61419618 717.3767895 433.19857218 717.37042612 434.78293598 717.36204493 C439.14439778 717.34531841 443.50529246 717.35975581 447.86672306 717.37910604 C452.56766199 717.39450877 457.26852622 717.38109226 461.96946716 717.37101746 C470.11893569 717.35738578 478.26823625 717.36172187 486.41769791 717.37784958 C498.21138328 717.40090021 510.00490007 717.39361595 521.798591 717.37831838 C540.94647085 717.35402953 560.09429685 717.34984726 579.2421875 717.36035156 C580.96193987 717.3612873 580.96193987 717.3612873 582.7164347 717.36224194 C585.03675845 717.36351322 587.3570822 717.36478746 589.67740595 717.36606465 C590.82770048 717.36669703 591.97799502 717.36732941 593.16314697 717.36798096 C594.31439869 717.3686191 595.46565041 717.36925725 596.65178854 717.36991473 C609.42638737 717.37671487 622.20098544 717.3787116 634.97558594 717.37890625 C636.11887431 717.37892908 637.26216268 717.37895191 638.44009615 717.37897544 C657.50811042 717.37890618 676.57610424 717.36686968 695.64410865 717.34794676 C707.40610791 717.3369854 719.16800001 717.33780961 730.92999403 717.3538865 C738.99281229 717.36435927 747.05558748 717.36457757 755.11840864 717.35676835 C759.76973855 717.35268375 764.42093138 717.35359973 769.07224464 717.36770058 C773.33359226 717.38056274 777.59470844 717.37959021 781.85605715 717.36782809 C783.39446618 717.36603194 784.93289151 717.36928558 786.4712757 717.37821047 C799.58491531 717.44977351 809.51862191 716.06574597 819.25 706.875 C824.98809557 697.44812871 824.42098065 686.49183134 824.36076355 675.8462677 C824.36207345 674.1167309 824.36470326 672.38719468 824.36853105 670.65766162 C824.3752117 665.92798106 824.36327679 661.19850586 824.34819686 656.46885145 C824.33520572 651.35993121 824.33962814 646.25102196 824.34190369 641.14208984 C824.34347448 632.29812198 824.33408558 623.45422067 824.31719017 614.61026955 C824.29277839 601.82351128 824.28499267 589.03678509 824.2812262 576.25000604 C824.27466514 555.50283411 824.25471332 534.75569762 824.22631836 514.00854492 C824.19876886 493.8581561 824.17753963 473.70777691 824.16479492 453.55737305 C824.16361267 451.69334225 824.16361267 451.69334225 824.16240653 449.79165427 C824.15849133 443.55727359 824.15470023 437.32289285 824.15097082 431.08851206 C824.11988566 379.39231688 824.06705924 327.69616017 824 276 C824.60885544 275.80346832 825.21771088 275.60693665 825.84501648 275.40444946 C826.64857071 275.14159149 827.45212494 274.87873352 828.2800293 274.60791016 C829.07450974 274.34950348 829.86899017 274.0910968 830.68754578 273.82485962 C859.57082592 263.52210369 882.4906756 235.41246755 895.37109375 208.6953125 C897.16832021 204.71366537 898.75506497 200.66641797 900.25 196.5625 C900.48420654 195.93174561 900.71841309 195.30099121 900.9597168 194.65112305 C905.33398499 182.06157455 906.49377158 169.66046777 906.39111328 156.45703125 C906.37501337 154.00203936 906.39106878 151.54869286 906.41015625 149.09375 C906.42827993 136.01681819 904.64242699 123.69883706 900.4375 111.25 C900.18919434 110.51322021 899.94088867 109.77644043 899.68505859 109.01733398 C893.33592449 91.10734341 883.00954045 75.72876708 870 62 C868.73349609 60.63681641 868.73349609 60.63681641 867.44140625 59.24609375 C847.87820736 38.83108649 816.71301746 22.72515801 788.00268555 21.82299805 C786.54746305 21.79639715 785.09211157 21.77627436 783.63671875 21.76171875 C782.45043633 21.74961113 782.45043633 21.74961113 781.2401886 21.73725891 C779.56859475 21.72349092 777.89697366 21.71273654 776.2253418 21.70483398 C774.55305453 21.69341192 772.88080083 21.67311878 771.20874023 21.64331055 C732.53762433 20.95652319 697.13938216 39.83074341 671.875 68.625 Z " fill="#000000" transform="translate(0,0)"/>
<path d="M0 0 C49.17 0 98.34 0 149 0 C149 260.7 149 521.4 149 790 C99.83 790 50.66 790 0 790 C0 529.3 0 268.6 0 0 Z " fill="#FEFEFE" transform="translate(0,0)"/>
<path d="M0 0 C1.84798908 0.02993778 3.69600862 0.05804648 5.54405212 0.08441162 C10.3826506 0.1583138 15.22043654 0.25689094 20.05847168 0.36077881 C25.00552599 0.46258386 29.95294841 0.54081873 34.90039062 0.62109375 C44.58904314 0.78174414 54.27700066 0.96848937 63.96484375 1.171875 C63.96631031 1.9984835 63.96777687 2.82509199 63.96928787 3.67674923 C64.00637195 23.80863325 64.06540798 43.94034913 64.14874649 64.07209682 C64.18852178 73.80775153 64.22092196 83.54332558 64.23583984 93.27905273 C64.24886417 101.76670763 64.27584881 110.25418494 64.31945682 118.74173981 C64.34205404 123.23406721 64.35775547 127.72617572 64.3567276 132.21856499 C64.35597996 136.4515369 64.37397227 140.68402527 64.40601158 144.91687202 C64.41449337 146.46596189 64.41627223 148.01510611 64.41064644 149.56420898 C64.37629452 160.48194927 65.48704855 169.39821237 73.16226196 177.68133545 C79.9777457 183.31700099 88.41516137 183.771271 96.87890625 183.78125 C97.97455902 183.79778625 99.07021179 183.81432251 100.19906616 183.83135986 C103.66271742 183.87953958 107.1259306 183.90114455 110.58984375 183.921875 C112.95314669 183.9500597 115.31642948 183.97999058 117.6796875 184.01171875 C123.4413275 184.08529026 129.20284581 184.13710805 134.96484375 184.171875 C134.96484375 182.191875 134.96484375 180.211875 134.96484375 178.171875 C137.24111386 181.02432598 139.06669689 184.02669231 140.8684082 187.19604492 C145.73538207 195.68913649 151.35489849 202.97709919 157.96484375 210.171875 C158.41666016 210.6781543 158.86847656 211.18443359 159.33398438 211.70605469 C175.78960196 230.03323393 198.51194275 241.55764194 221.96484375 248.171875 C223.16625 248.51347656 224.36765625 248.85507812 225.60546875 249.20703125 C256.32780601 256.35562704 285.54599894 249.53974406 313.96484375 238.171875 C313.98817404 252.36643542 314.00575715 266.56099287 314.01665592 280.7555685 C314.02188547 287.34592285 314.02898442 293.93626437 314.0402832 300.52661133 C314.05110953 306.88079518 314.05712004 313.23496665 314.05972099 319.58915901 C314.0615757 322.01937111 314.06519718 324.44958249 314.07057381 326.87978935 C314.07778086 330.27070481 314.07883483 333.66156841 314.07836914 337.05249023 C314.08196442 338.06812546 314.08555969 339.08376068 314.08926392 340.13017273 C314.08788925 341.04869019 314.08651459 341.96720764 314.08509827 342.91355896 C314.08648096 344.11788149 314.08648096 344.11788149 314.08789158 345.34653378 C313.96484375 347.171875 313.96484375 347.171875 312.96484375 348.171875 C311.57827545 348.26835567 310.18681769 348.29559396 308.79689693 348.29492283 C307.89270643 348.29691388 306.98851593 348.29890493 306.05692571 348.30095631 C304.54966156 348.29658705 304.54966156 348.29658705 303.01194763 348.29212952 C301.4242059 348.29341115 301.4242059 348.29341115 299.80438858 348.29471868 C296.22821819 348.29637664 292.65209386 348.29084698 289.07592773 348.28540039 C286.52408855 348.28511856 283.97224929 348.28527617 281.42041016 348.2858429 C275.91139061 348.28607122 270.40238612 348.2832197 264.89336967 348.27760506 C256.92817072 348.2694924 248.96297749 348.26687508 240.99777485 348.26561707 C228.07606866 348.26342618 215.15436878 348.25676509 202.23266602 348.24731445 C189.6773278 348.23814129 177.12199128 348.23105999 164.56665039 348.22680664 C163.79328126 348.22654392 163.01991213 348.22628119 162.22310757 348.22601051 C158.34350376 348.22470551 154.46389994 348.22344179 150.58429611 348.22219861 C118.37780741 348.21182484 86.17132645 348.19420553 53.96484375 348.171875 C53.9404422 347.45775452 53.91604065 346.74363403 53.89089966 346.00787354 C53.77660484 342.73425001 53.65592788 339.46089072 53.53515625 336.1875 C53.49688721 335.06424316 53.45861816 333.94098633 53.41918945 332.78369141 C52.08871008 297.46786024 36.40798684 265.90500765 10.953125 241.71484375 C-16.04479594 217.11227739 -47.18697034 209.05862163 -83.03515625 207.171875 C-83.03515625 143.481875 -83.03515625 79.791875 -83.03515625 14.171875 C-72.64015625 13.676875 -72.64015625 13.676875 -62.03515625 13.171875 C-50.33139907 11.58350795 -36.70124806 9.42729751 -26.34498596 3.14689636 C-18.26281579 -1.45197657 -8.97125031 -0.21780236 0 0 Z " fill="#010101" transform="translate(388.03515625,297.828125)"/>
<path d="M0 0 C66.66 0 133.32 0 202 0 C203.65 6.27 205.3 12.54 207 19 C214.61361117 39.02097753 224.28658054 55.35366445 239 71 C239.5878125 71.66386719 240.175625 72.32773438 240.78125 73.01171875 C249.8031723 82.76568299 262.16886799 90.16148189 274 96 C275.02480469 96.51175781 276.04960938 97.02351563 277.10546875 97.55078125 C302.32379476 109.69293822 328.5136353 110.74863647 356 108 C356 242.31 356 376.62 356 515 C234.89 515 113.78 515 -11 515 C-7.625 503.75 -7.625 503.75 -6.3125 499.875 C-6.06113281 499.12992188 -5.80976563 498.38484375 -5.55078125 497.6171875 C-5.36902344 497.08351563 -5.18726563 496.54984375 -5 496 C-4.43633761 495.99902319 -3.87267523 495.99804638 -3.29193217 495.99703997 C30.12718412 495.93874766 63.54622593 495.86493554 96.96526047 495.77101372 C100.97936279 495.75974577 104.99346546 495.74860728 109.00756836 495.73754883 C110.20625431 495.7342433 110.20625431 495.7342433 111.42915613 495.730871 C124.36258537 495.69551408 137.29601455 495.67064089 150.22947418 495.64965298 C163.50381194 495.62787814 176.77808708 495.59481173 190.05237156 495.55129844 C198.24103679 495.52481071 206.42962401 495.50709415 214.61832995 495.50065396 C220.23626742 495.49539126 225.85410678 495.47914471 231.47199165 495.45433434 C234.71156613 495.44034942 237.95093088 495.43276734 241.19054031 495.43499184 C244.7083628 495.43664464 248.22564465 495.4199435 251.74339294 495.39872742 C252.75995151 495.40357499 253.77651008 495.40842257 254.82387346 495.41341704 C264.13702068 495.32085479 271.41645389 493.43545987 278.2734375 486.9609375 C283.80739172 480.67576777 285.14847953 473.66706144 285.09092712 465.44169617 C285.08626434 464.36102875 285.08160156 463.28036133 285.07679749 462.16694641 C285.0668425 460.9964122 285.05688751 459.82587799 285.04663086 458.61987305 C285.03386 456.04091035 285.02141911 453.46194601 285.00926208 450.88298035 C285.00127216 449.50546452 284.99327582 448.12794872 284.98527336 446.75043297 C284.96246144 442.47544152 284.95687392 438.20053757 284.95594788 433.92549133 C284.95576611 433.2023887 284.95558434 432.47928606 284.95539707 431.73427123 C284.95494751 428.75394364 284.95502922 425.7736162 284.9552325 422.79328859 C284.95496787 414.34990622 284.93820887 405.90726564 284.87329102 397.46411133 C284.82174764 390.7451519 284.80569708 384.02715059 284.83075243 377.30802566 C284.84266039 373.75739449 284.83696321 370.20881036 284.78806877 366.65845299 C284.73393031 362.69432772 284.75834493 358.73273098 284.78881836 354.76831055 C284.76064529 353.60384903 284.73247223 352.43938751 284.70344543 351.23963928 C284.79751562 346.29388889 285.00269681 343.21321204 288.20955086 339.31209755 C290.71686823 337.0486527 293.29325099 335.01677086 296 333 C307.16359079 321.45957914 316.05850173 306.88546185 322 292 C322.45511963 290.92020874 322.45511963 290.92020874 322.91943359 289.81860352 C333.49709763 264.31025558 335.01070706 232.52216867 327 206 C326.76394043 205.21560547 326.52788086 204.43121094 326.28466797 203.62304688 C315.70992928 169.83297275 292.79719328 142.51648873 261.75 125.75 C252.79970434 121.09949652 243.73115866 117.6237595 234 115 C233.24203125 114.79117188 232.4840625 114.58234375 231.703125 114.3671875 C198.35348423 105.52617535 163.09515853 111.63731721 133.31640625 128.390625 C127.08408006 132.06170245 121.50421538 136.30899291 116 141 C115.10925781 141.75152344 114.21851563 142.50304687 113.30078125 143.27734375 C90.28169261 163.33532451 72.7086737 193.63994865 69.77044678 224.40344238 C69.48819298 229.19277889 69.47082059 233.97324857 69.53344727 238.76928711 C69.56262365 241.19779217 69.55394284 243.624125 69.54101562 246.05273438 C69.55486759 254.96314917 70.31314109 263.21245322 72.35913086 271.8918457 C73 275 73 275 73 280 C60.79 280 48.58 280 36 280 C35.9906543 275.1752002 35.98130859 270.35040039 35.97167969 265.37939453 C35.93790437 249.43376593 35.88255262 233.48826608 35.81609726 217.54274178 C35.77633379 207.87549699 35.74392763 198.2083333 35.72900391 188.54101562 C35.71597343 180.11231425 35.68897316 171.6837915 35.64538693 163.25519073 C35.62280349 158.79468926 35.60708745 154.33440785 35.60811615 149.87384415 C35.60886461 145.66959529 35.59083968 141.46583229 35.55883217 137.26170921 C35.55036061 135.7243274 35.54856449 134.18689091 35.55419731 132.64949608 C35.58444458 123.11961386 35.43957278 113.93285865 28.75 106.5 C28.1725 106.005 27.595 105.51 27 105 C27 104.34 27 103.68 27 103 C25.3369416 102.32438252 23.66905395 101.66066719 22 101 C20.86433594 100.49106201 19.72867188 99.98212402 18.55859375 99.45776367 C13.13905015 97.44093289 7.78727975 97.52233304 2.0625 97.48828125 C0.94182129 97.47033005 -0.17885742 97.45237885 -1.33349609 97.43388367 C-4.88895991 97.37999656 -8.44429111 97.3459536 -12 97.3125 C-14.42059128 97.27930795 -16.84116511 97.24481655 -19.26171875 97.20898438 C-25.17436021 97.12428249 -31.08701929 97.05584162 -37 97 C-36.04705786 95.72559206 -35.09358585 94.45158031 -34.13989258 93.17773438 C-33.60898514 92.46822632 -33.0780777 91.75871826 -32.53108215 91.02770996 C-31.29386555 89.38918493 -30.03157551 87.76961077 -28.76171875 86.15625 C-8.78637995 60.57577847 -1.68739681 32.0605394 0 0 Z " fill="#000000" transform="translate(442,176)"/>
<path d="M0 0 C1.12019531 -0.01160156 2.24039063 -0.02320313 3.39453125 -0.03515625 C27.23787196 0.04734666 48.20773662 10.61406785 65.5 26.375 C66.17804688 26.95894531 66.85609375 27.54289062 67.5546875 28.14453125 C79.33938595 38.87023606 86.39805551 55.3643909 90.5 70.375 C90.85835937 71.57382813 91.21671875 72.77265625 91.5859375 74.0078125 C97.27526112 97.25790482 90.58101495 121.49721243 78.6796875 141.45898438 C76.23738722 145.42570056 73.66656191 148.95995536 70.5 152.375 C69.24509766 153.78265625 69.24509766 153.78265625 67.96484375 155.21875 C53.46435633 170.92719455 32.71668415 182.22846717 11.19506836 183.58300781 C7.66951557 183.67816443 4.15176552 183.69709403 0.625 183.6875 C-1.14037109 183.71166992 -1.14037109 183.71166992 -2.94140625 183.73632812 C-26.65925329 183.74937425 -48.36530373 173.36023573 -65.0859375 156.81640625 C-74.22462363 147.14257183 -80.36514437 136.60717046 -85.5 124.375 C-85.75620117 123.76624023 -86.01240234 123.15748047 -86.27636719 122.53027344 C-94.80852479 101.21577785 -92.5739628 75.5608101 -84.06640625 54.66015625 C-72.84075316 31.11707832 -53.17636826 13.08768199 -28.62304688 4.0546875 C-19.07109458 0.99665677 -9.99885683 -0.10355548 0 0 Z " fill="#000000" transform="translate(773.5,61.625)"/>
<path d="M0 0 C1.84851563 -0.01740234 1.84851563 -0.01740234 3.734375 -0.03515625 C11.42501785 -0.01066376 18.09330151 0.90727111 25.375 3.375 C26.51710938 3.75140625 27.65921875 4.1278125 28.8359375 4.515625 C54.1320906 14.14579589 72.19316788 30.26791762 84.125 54.75 C88.29555204 64.40144645 90.97298821 74.85837153 91.375 85.375 C91.43816406 86.38304687 91.50132812 87.39109375 91.56640625 88.4296875 C92.48836138 114.18495009 81.66664617 138.17105089 64.36694336 156.81835938 C57.55257633 163.92822751 50.00890323 168.73205433 41.375 173.375 C40.57835937 173.81585938 39.78171875 174.25671875 38.9609375 174.7109375 C19.42016774 185.06520992 -4.52598939 185.60818986 -25.625 180.375 C-51.72446737 172.07445229 -70.52021576 155.14171949 -83.30859375 131.2265625 C-93.19262765 111.261307 -95.5525755 86.49375648 -89.01171875 65.03515625 C-84.39305206 52.84447825 -78.97175252 42.46200208 -70.625 32.375 C-70.16351562 31.77429688 -69.70203125 31.17359375 -69.2265625 30.5546875 C-60.71281349 19.64108977 -48.03690286 12.09406587 -35.5625 6.5 C-34.96308594 6.22607422 -34.36367188 5.95214844 -33.74609375 5.66992188 C-22.82215885 1.00642 -11.77201367 -0.11152434 0 0 Z " fill="#000000" transform="translate(642.625,326.625)"/>
<path d="M0 0 C1.27294922 -0.01611328 2.54589844 -0.03222656 3.85742188 -0.04882812 C28.20468388 -0.06120599 49.35932735 9.74018597 66.6328125 26.5703125 C83.86892109 44.20842945 92.69137998 65.55113107 92.625 90.125 C92.64111328 91.30642578 92.65722656 92.48785156 92.67382812 93.70507812 C92.68627127 116.41381938 83.10759472 139.53602867 67.078125 155.69140625 C53.94763892 168.13569462 39.70718539 175.50745422 22.3125 180.3125 C21.11238281 180.6734375 19.91226563 181.034375 18.67578125 181.40625 C13.23228872 182.74166655 7.76399366 182.65396553 2.1875 182.625 C1.07600586 182.62008545 -0.03548828 182.6151709 -1.18066406 182.61010742 C-24.19624858 182.28232193 -45.29528508 173.48169159 -61.6875 157.3125 C-62.44546875 156.62671875 -63.2034375 155.9409375 -63.984375 155.234375 C-80.0754902 140.25299189 -88.9311451 118.7702179 -90.10546875 97.046875 C-91.00881919 68.77179745 -82.35418352 46.50214764 -63.01953125 25.65234375 C-45.84628427 8.42156495 -24.05712773 -0.05999284 0 0 Z " fill="#000000" transform="translate(308.6875,545.6875)"/>
<path d="M0 0 C22.89635732 -0.64230705 45.58046872 7.71025651 62.4921875 23.12109375 C62.97284668 23.55405762 63.45350586 23.98702148 63.94873047 24.43310547 C71.69572459 31.49213309 77.53114923 38.79968104 82.4921875 48.12109375 C83.04648437 49.16007812 83.60078125 50.1990625 84.171875 51.26953125 C95.08059794 73.2497939 96.18103645 98.24497675 88.39453125 121.3828125 C79.48573346 145.58838848 63.30336586 163.59291742 40.1796875 174.80859375 C29.73741691 179.30562999 18.93177534 182.86967424 7.4921875 183.12109375 C6.72261719 183.15976562 5.95304687 183.1984375 5.16015625 183.23828125 C-17.76761734 183.9226924 -40.59366761 176.73506941 -57.95703125 161.55859375 C-70.7278077 149.35497277 -79.41677636 136.74535481 -85.5078125 120.12109375 C-85.84047119 119.33081787 -86.17312988 118.54054199 -86.51586914 117.72631836 C-93.93510475 98.24055335 -90.71914974 73.61051644 -82.74609375 54.85546875 C-72.23812985 31.71292922 -53.16163596 14.19857582 -29.5078125 5.12109375 C-19.63403886 1.60851484 -10.39026884 0.5017108 0 0 Z " fill="#000000" transform="translate(308.5078125,88.87890625)"/>
</svg>
