<?xml version="1.0" encoding="UTF-8"?>
<svg version="1.1" xmlns="http://www.w3.org/2000/svg" width="425" height="434">
<path d="M0 0 C140.25 0 280.5 0 425 0 C425 143.22 425 286.44 425 434 C284.75 434 144.5 434 0 434 C0 290.78 0 147.56 0 0 Z " fill="#F7F7F7" transform="translate(0,0)"/>
<path d="M0 0 C140.25 0 280.5 0 425 0 C425 143.22 425 286.44 425 434 C284.75 434 144.5 434 0 434 C0 290.78 0 147.56 0 0 Z M288 42 C287.00033203 42.78310547 287.00033203 42.78310547 285.98046875 43.58203125 C275.09612716 52.46848222 266.9340789 66.30763181 264 80 C264 84.95 264 89.9 264 95 C229.35 95 194.7 95 159 95 C158.34 91.7 157.68 88.4 157 85 C155.87002677 82.34748068 154.77510584 79.98520479 153.375 77.5 C153.02743652 76.86634521 152.67987305 76.23269043 152.32177734 75.57983398 C149.15886458 69.97336872 145.57362785 64.56289163 141 60 C140.34 60 139.68 60 139 60 C138.67 59.01 138.34 58.02 138 57 C127.32258482 46.00668496 109.43488474 41.14618623 94.67895508 40.65014648 C76.243151 40.43738594 59.32887299 45.9575932 45.95581055 58.86791992 C31.47446933 73.47472762 24.72869802 90.13180802 24.68286133 110.63769531 C25.04256381 127.99183291 32.01607336 144.12861594 44.26171875 156.38671875 C50.38543905 162.2308969 56.56016779 166.4973707 64.0625 170.375 C64.72338623 170.72143555 65.38427246 171.06787109 66.06518555 171.42480469 C66.71527588 171.74610352 67.36536621 172.06740234 68.03515625 172.3984375 C68.6062915 172.68380371 69.17742676 172.96916992 69.76586914 173.26318359 C73.05192562 174.34692509 76.56656614 174.57082077 80 175 C80 208.66 80 242.32 80 277 C77.36 277.33 74.72 277.66 72 278 C63.72892553 280.55959082 56.80531252 284.73213987 50 290 C49.39800781 290.42539062 48.79601562 290.85078125 48.17578125 291.2890625 C36.5176429 300.14816064 27.60313577 316.43687253 25.4296875 330.7578125 C23.24794122 349.81868436 25.93629559 367.97266719 37.94921875 383.4921875 C38.96435547 384.73355469 38.96435547 384.73355469 40 386 C40.62519531 386.76570313 41.25039063 387.53140625 41.89453125 388.3203125 C52.39635433 400.72115806 67.91772232 409.60898848 84.2565918 411.22290039 C103.69735943 412.16315688 121.3722786 408.80937908 136.33325195 395.46875 C141.46053167 390.81480437 141.46053167 390.81480437 145.67582035 385.35949135 C148.36007992 382.63444932 149.91683335 382.40511248 153.67529148 382.34240663 C154.43063728 382.35512625 155.18598307 382.36784587 155.96421814 382.38095093 C157.176868 382.37159246 157.176868 382.37159246 158.41401583 382.36204493 C161.12668569 382.34710659 163.83791986 382.36778457 166.55053711 382.38818359 C168.49373384 382.38464326 170.43692759 382.37886668 172.38011169 382.37101746 C176.56650972 382.35882664 180.75250048 382.36231956 184.93888664 382.37784958 C191.55667022 382.40212493 198.17409566 382.39068822 204.79188538 382.37417603 C216.45080525 382.34966357 228.10956289 382.35548835 239.76849365 382.36798096 C257.32025153 382.3865544 274.87197867 382.38174746 292.42371374 382.34794676 C299.00401088 382.33641975 305.58404858 382.34088964 312.16433132 382.35796714 C316.2562965 382.3658567 320.34818593 382.36161875 324.44014931 382.35425758 C326.33926267 382.35344632 328.23838628 382.35781 330.13747406 382.36770058 C332.72813537 382.38054112 335.31813906 382.3750575 337.90879822 382.36508179 C338.66191329 382.37333996 339.41502837 382.38159814 340.19096512 382.39010656 C345.75322055 382.33926251 348.75288703 381.06504412 352.78995228 377.35507584 C354.62485743 373.78386066 354.40211525 370.24073239 354.36076355 366.31878662 C354.36332682 365.43332161 354.3658901 364.5478566 354.36853105 363.63555932 C354.37348008 360.66277992 354.35695746 357.6905062 354.34057617 354.71777344 C354.33973014 352.5891318 354.34020457 350.46048928 354.34190369 348.33184814 C354.342766 342.54706916 354.32510188 336.76247601 354.30418181 330.97774029 C354.28545445 324.93457158 354.28366768 318.89139882 354.28010559 312.84820557 C354.27077354 301.40185697 354.24614402 289.95559411 354.21605712 278.5092833 C354.18254923 265.47922076 354.16603618 252.44915417 354.15097082 239.41905928 C354.11959552 212.61265861 354.06681244 185.8063341 354 159 C354.9369873 158.69312256 355.87397461 158.38624512 356.83935547 158.07006836 C371.19217294 153.21077599 382.18235204 142.75047371 390 130 C390.38542969 129.40832031 390.77085937 128.81664062 391.16796875 128.20703125 C397.57448757 117.87314457 399.19184487 107.25318591 399.25 95.375 C399.270625 94.34503906 399.29125 93.31507812 399.3125 92.25390625 C399.36453218 81.91251039 396.99112765 73.02739732 392.25 63.875 C391.90437012 63.19630859 391.55874023 62.51761719 391.20263672 61.81835938 C388.41405175 56.48810203 385.34330325 51.22591668 381 47 C380.34 47 379.68 47 379 47 C379 46.34 379 45.68 379 45 C372.11138878 38.97924531 364.23642433 34.84284879 356 31 C355.33097656 30.6390625 354.66195313 30.278125 353.97265625 29.90625 C333.18230563 20.35503942 304.54723346 28.22798389 288 42 Z " fill="#000000" transform="translate(0,0)"/>
<path d="M0 0 C34.32 0 68.64 0 104 0 C105.65 5.94 107.3 11.88 109 18 C114.2423554 29.18369151 121.31085562 38.32367176 131 46 C131.54011719 46.44988281 132.08023438 46.89976562 132.63671875 47.36328125 C144.84274914 56.90940187 159.96312938 59.21804142 174.94921875 59.07421875 C176.01378296 59.06886108 177.07834717 59.06350342 178.1751709 59.0579834 C180.78353095 59.0440819 183.39172269 59.02460959 186 59 C186.02332549 86.49371092 186.04097745 113.98742037 186.05181217 141.48113918 C186.05697588 154.2459744 186.06401998 167.01080348 186.07543945 179.77563477 C186.08538403 190.89707587 186.09185288 202.01851254 186.09408849 213.13995796 C186.09539599 219.03262097 186.09848427 224.92527127 186.10573006 230.81793022 C186.1124867 236.35735416 186.11461769 241.89676008 186.11310768 247.43618774 C186.11338417 249.47565369 186.11539139 251.5151202 186.11920547 253.5545826 C186.12413717 256.32620083 186.12300024 259.09774987 186.12025452 261.86936951 C186.12462378 263.09648538 186.12462378 263.09648538 186.12908131 264.34839147 C186.11412121 269.88587879 186.11412121 269.88587879 185 271 C182.52108029 271.09771507 180.07005223 271.12995957 177.59068298 271.12025452 C176.41333827 271.12153615 176.41333827 271.12153615 175.21220881 271.12284368 C172.56194141 271.12450087 169.91173625 271.11897324 167.26147461 271.11352539 C165.36972556 271.11324354 163.4779764 271.1134012 161.58622742 271.1139679 C156.4335489 271.11425597 151.28089345 271.10835765 146.12822032 271.10139394 C140.74967104 271.09516204 135.3711213 271.09455673 129.99256897 271.09336853 C119.79988176 271.09025473 109.60720521 271.08204069 99.41452271 271.07201904 C87.81375432 271.06085941 76.21298543 271.05534783 64.61221302 271.05032361 C40.74146942 271.03985811 16.87073531 271.02225773 -7 271 C-6.72285156 270.34773438 -6.44570312 269.69546875 -6.16015625 269.0234375 C-5.79792969 268.14945312 -5.43570313 267.27546875 -5.0625 266.375 C-4.70285156 265.51648438 -4.34320313 264.65796875 -3.97265625 263.7734375 C-2.94893351 260.85438872 -2.42606604 258.05870567 -2 255 C-0.92462966 254.99918285 -0.92462966 254.99918285 0.17246532 254.99834919 C17.61583327 254.9833825 35.05891746 254.94094039 52.50213909 254.86790943 C60.93757202 254.83325483 69.37284145 254.80790331 77.80834961 254.80444336 C85.16068221 254.8014041 92.51272367 254.78091905 99.8649438 254.73947543 C103.75805436 254.71813991 107.65075097 254.70554743 111.54392052 254.71384621 C115.20903108 254.72138321 118.8733027 254.70557954 122.53825951 254.67193985 C124.52324648 254.65977656 126.5083367 254.67230107 128.49331665 254.68556213 C135.44565712 254.85404218 135.44565712 254.85404218 141.27619934 251.64628601 C143.94704571 247.54614639 144.11489283 244.59793225 144.07836914 239.80371094 C144.07249283 238.5251825 144.06661652 237.24665405 144.06056213 235.92938232 C144.05588991 235.24616661 144.05121769 234.5629509 144.04640388 233.85903168 C144.02719344 230.23021603 144.04244211 226.60148724 144.05273438 222.97265625 C144.06497108 218.35950638 144.06671427 213.74728293 144.02416992 209.13427734 C143.99065941 205.40195941 143.996287 201.67146954 144.02773857 197.93915558 C144.03264735 196.52146423 144.02345512 195.10364753 143.99952888 193.6861496 C143.8232471 182.58799207 143.8232471 182.58799207 146.73995972 178.65197754 C148.74337682 176.90669507 150.79993763 175.48146834 153 174 C166.19994575 159.77912198 170.98973679 141.47937436 170.33984375 122.48828125 C169.20558772 103.74681953 160.60839644 88.73558467 146.921875 76.078125 C131.29227184 62.99556828 112.89771149 59.33705673 93 61 C76.65696654 63.25827116 61.62324937 72.48817296 51 85 C40.46977927 99.02704875 36.871297 111.72858091 36.75 129.0625 C36.7406543 129.98450195 36.73130859 130.90650391 36.72167969 131.85644531 C36.75066719 138.11551521 37.55270888 143.91330016 39 150 C35.35418313 150.02887512 31.70839537 150.04675585 28.0625 150.0625 C27.02158203 150.07087891 25.98066406 150.07925781 24.90820312 150.08789062 C23.91884766 150.09111328 22.92949219 150.09433594 21.91015625 150.09765625 C20.99371338 150.10289307 20.07727051 150.10812988 19.13305664 150.11352539 C17 150 17 150 16 149 C15.89613863 146.34892195 15.85638565 143.72304673 15.8581543 141.07128906 C15.85467987 140.24036743 15.85120544 139.4094458 15.84762573 138.55334473 C15.84025443 136.74231897 15.83491641 134.9312841 15.83133507 133.12024689 C15.82418951 130.25389719 15.80853671 127.38772068 15.78999329 124.52142334 C15.73743881 116.3694499 15.68955101 108.21756882 15.67407227 100.06542969 C15.66399285 95.08445262 15.63466574 90.10390696 15.59275246 85.12310028 C15.58043316 83.22374484 15.57532289 81.32432847 15.57755089 79.42493439 C15.57990278 76.7649178 15.55774539 74.1061385 15.5300293 71.44628906 C15.53993141 70.26936493 15.53993141 70.26936493 15.55003357 69.06866455 C15.48694966 65.37983566 15.12091608 63.19427746 13.15437317 60.03460693 C9.48282404 56.56716711 6.0011283 56.82703754 1.14453125 56.68359375 C0.48289474 56.66281265 -0.17874176 56.64203156 -0.86042786 56.62062073 C-2.96934852 56.55535273 -5.07839135 56.49634656 -7.1875 56.4375 C-8.61915315 56.39429311 -10.05079404 56.35067812 -11.48242188 56.30664062 C-14.98815154 56.19969494 -18.49401786 56.09836359 -22 56 C-21.40360718 55.30946533 -21.40360718 55.30946533 -20.79516602 54.60498047 C-5.72895548 37.10533267 -1.34224751 24.16045527 0 0 Z " fill="#020202" transform="translate(160,103)"/>
<path d="M0 0 C0.91949936 0.00565979 1.83899872 0.01131958 2.78636169 0.01715088 C5.69016139 0.03933651 8.59267432 0.08949742 11.49609375 0.140625 C13.47849766 0.1607131 15.46092113 0.1789598 17.44335938 0.1953125 C22.27392461 0.23914259 27.10354191 0.30804372 31.93359375 0.390625 C31.9416806 1.42743912 31.94976746 2.46425323 31.95809937 3.53248596 C32.03567681 13.31664939 32.12344529 23.10067574 32.22112083 32.88465977 C32.27100785 37.91437092 32.31733853 42.94406184 32.35546875 47.97387695 C32.39241751 52.83042334 32.43880342 57.6867973 32.49165726 62.54319572 C32.51015029 64.39345199 32.52527693 66.24374515 32.53693771 68.09405708 C32.5538875 70.69121986 32.58294314 73.28799212 32.61474609 75.88500977 C32.61690628 76.64530487 32.61906647 77.40559998 32.62129211 78.18893433 C32.69515098 82.9287945 33.29700964 86.92243471 34.93359375 91.390625 C38.54620171 93.70548089 41.88095309 93.5708571 46.08203125 93.41796875 C47.2525 93.40701172 48.42296875 93.39605469 49.62890625 93.38476562 C52.07501589 93.34711319 54.5208454 93.27437666 56.96484375 93.16601562 C60.58334467 93.16800381 63.47847106 93.29773795 66.93359375 94.390625 C70.12239607 97.69062138 71.92410396 101.305207 73.93359375 105.390625 C77.67031082 110.45092718 82.24051422 115.54408524 87.93359375 118.390625 C87.93359375 119.050625 87.93359375 119.710625 87.93359375 120.390625 C89.01253906 120.81021484 89.01253906 120.81021484 90.11328125 121.23828125 C93.69293866 122.70088365 97.15009647 124.38768331 100.62890625 126.07421875 C109.70052672 129.6878548 118.06538201 130.91622432 127.80859375 130.828125 C128.95030029 130.82272705 130.09200684 130.8173291 131.26831055 130.81176758 C140.53393952 130.64438421 148.56563645 129.64558029 156.6328125 124.75390625 C158.93359375 123.390625 158.93359375 123.390625 160.93359375 123.390625 C160.97988543 131.04869715 161.01544678 138.70675484 161.03721809 146.36493492 C161.04766599 149.92074899 161.06184334 153.4764675 161.08447266 157.03222656 C161.11031207 161.117848 161.12005819 165.20336869 161.12890625 169.2890625 C161.13922882 170.56929291 161.14955139 171.84952332 161.16018677 173.16854858 C161.16033783 174.34962189 161.16048889 175.53069519 161.16064453 176.74755859 C161.16508575 177.79124603 161.16952698 178.83493347 161.17410278 179.9102478 C160.93359375 182.390625 160.93359375 182.390625 158.93359375 184.390625 C156.57915306 184.63672066 156.57915306 184.63672066 153.56796265 184.63113403 C152.42930252 184.63388336 151.2906424 184.63663269 150.11747742 184.63946533 C148.23473869 184.6286795 148.23473869 184.6286795 146.31396484 184.61767578 C144.33842873 184.61811386 144.33842873 184.61811386 142.32298279 184.61856079 C138.70539379 184.61913603 135.08793667 184.60735424 131.4703784 184.59341288 C127.69206118 184.58093386 123.91374114 184.57973726 120.13540649 184.57736206 C112.97787686 184.57113895 105.82040812 184.55471693 98.66290534 184.53466308 C90.51550137 184.51232989 82.36809454 184.50131715 74.2206676 184.49127221 C57.45827397 184.47035139 40.69594162 184.43515933 23.93359375 184.390625 C23.91442902 183.82927856 23.89526428 183.26793213 23.8755188 182.6895752 C23.78178537 180.09991061 23.67417221 177.51099213 23.56640625 174.921875 C23.52157104 173.59784668 23.52157104 173.59784668 23.47583008 172.24707031 C22.69060823 154.29441932 14.76779985 138.85888632 1.93359375 126.390625 C0.94359375 125.895625 0.94359375 125.895625 -0.06640625 125.390625 C-0.06640625 124.730625 -0.06640625 124.070625 -0.06640625 123.390625 C-0.59363281 123.13023437 -1.12085938 122.86984375 -1.6640625 122.6015625 C-3.47379736 121.68933842 -5.27131817 120.75282286 -7.0625 119.8046875 C-21.35758134 112.37319232 -32.09024561 110.33374504 -49.06640625 109.390625 C-49.06640625 76.390625 -49.06640625 43.390625 -49.06640625 9.390625 C-42.13640625 8.730625 -35.20640625 8.070625 -28.06640625 7.390625 C-21.05507854 5.12888595 -21.05507854 5.12888595 -14.63305664 2.22753906 C-9.70965357 -0.01037748 -5.34408524 -0.12648868 0 0 Z " fill="#010101" transform="translate(136.06640625,166.609375)"/>
<path d="M0 0 C1.27230469 0.95132813 1.27230469 0.95132813 2.5703125 1.921875 C2.5703125 2.581875 2.5703125 3.241875 2.5703125 3.921875 C3.1271875 4.14875 3.6840625 4.375625 4.2578125 4.609375 C14.94120027 10.67291941 20.93676252 23.15709146 24.3203125 34.41796875 C27.81870897 49.21327051 25.29187575 64.18656111 18.09375 77.4921875 C9.03158552 91.94517803 -3.23618851 101.1239576 -19.70703125 105.53125 C-35.04661276 107.73205079 -49.17684662 106.0754264 -62.4296875 97.921875 C-63.4403125 97.365 -64.4509375 96.808125 -65.4921875 96.234375 C-66.1315625 95.80125 -66.7709375 95.368125 -67.4296875 94.921875 C-67.4296875 94.261875 -67.4296875 93.601875 -67.4296875 92.921875 C-68.29787109 92.55449219 -68.29787109 92.55449219 -69.18359375 92.1796875 C-78.91109138 86.73228883 -84.36476527 74.9503642 -87.6328125 64.8515625 C-91.57225797 50.36830711 -90.28215532 33.6008762 -82.99609375 20.35546875 C-74.17805057 6.65561613 -62.22157115 -3.87881605 -46.05322266 -7.62939453 C-29.96785395 -10.38064222 -13.92105606 -8.76059453 0 0 Z " fill="#010101" transform="translate(363.4296875,46.078125)"/>
<path d="M0 0 C4.64838052 3.36395959 9.22629274 7.02963706 13.1875 11.1875 C13.1875 11.8475 13.1875 12.5075 13.1875 13.1875 C13.8475 13.1875 14.5075 13.1875 15.1875 13.1875 C17.02734375 15.6796875 17.02734375 15.6796875 19.125 19.0625 C19.81464844 20.15304688 20.50429688 21.24359375 21.21484375 22.3671875 C25.79059863 30.63610368 26.66941709 38.80539354 26.5625 48.125 C26.57410156 49.13240234 26.58570313 50.13980469 26.59765625 51.17773438 C26.53810492 66.61145458 20.74632455 79.05178603 10.1875 90.1875 C-2.75901811 101.56090767 -16.01197985 106.76425716 -33.16796875 106.4296875 C-49.3349516 105.35535423 -62.74587822 99.07387154 -73.8125 87.1875 C-85.10634238 73.55090362 -89.15294654 58.700347 -87.8125 41.1875 C-85.41982729 25.54680725 -77.25487723 12.05605186 -64.59375 2.515625 C-45.19742979 -10.90237734 -20.40056478 -12.70683643 0 0 Z " fill="#010101" transform="translate(293.8125,181.8125)"/>
<path d="M0 0 C0 0.66 0 1.32 0 2 C0.59167969 2.2784375 1.18335937 2.556875 1.79296875 2.84375 C12.19753614 8.2946384 19.43612977 19.91054736 22.90625 30.859375 C27.12406351 46.87144481 25.6729916 62.34160249 17.921875 76.98046875 C9.45517208 90.28282924 -3.25887303 100.33912789 -18.55419922 104.50634766 C-33.65827488 107.55490435 -48.60885564 105.61503817 -61.75 97.6875 C-66.43868054 94.52995606 -71.15551948 91.17495162 -75 87 C-75 86.34 -75 85.68 -75 85 C-75.66 85 -76.32 85 -77 85 C-88.28764278 69.85208112 -90.78547589 54.63119519 -89 36 C-86.61543717 21.66500262 -76.13474065 8.64344775 -64.59375 0.25 C-44.20069339 -12.65699785 -20.67922345 -11.87230711 0 0 Z " fill="#010101" transform="translate(125,295)"/>
<path d="M0 0 C1.07056641 0.00161133 2.14113281 0.00322266 3.24414062 0.00488281 C11.03406753 0.12593286 17.238061 0.95111468 24.3125 4.375 C25.35083984 4.79072266 25.35083984 4.79072266 26.41015625 5.21484375 C39.55736708 10.8867021 49.21572871 22.62207155 54.75 35.5625 C60.59551424 52.19151996 59.39070326 68.69760463 51.80859375 84.51171875 C42.8923119 99.57271532 29.76421329 108.59453262 13.1875 113.375 C-0.42356418 116.18538167 -14.61380768 114.58067816 -26.875 107.8125 C-40.72260911 98.62691929 -50.88858708 86.43852531 -55.27734375 70.19140625 C-57.68765677 53.64059019 -55.8013238 38.5057668 -46.6875 24.375 C-34.71211809 8.71320727 -19.70846974 -0.03058422 0 0 Z " fill="#010101" transform="translate(91.6875,51.625)"/>
</svg>
