<?xml version="1.0" encoding="UTF-8"?>
<svg version="1.1" xmlns="http://www.w3.org/2000/svg" width="810" height="1080">
<path d="M0 0 C0.60457031 0.46148437 1.20914063 0.92296875 1.83203125 1.3984375 C20.51024543 16.08473783 33.75125816 43.22944838 36.75683594 66.44580078 C39.77643129 98.16367884 32.15550669 126.60343477 12.84765625 151.97265625 C11.93306641 152.97619141 11.93306641 152.97619141 11 154 C10.34 154 9.68 154 9 154 C9 154.66 9 155.32 9 156 C8.34 156 7.68 156 7 156 C6.773125 156.5775 6.54625 157.155 6.3125 157.75 C4.65598007 160.58974845 2.60531294 162.01499967 0 164 C-0.84304688 164.89332031 -0.84304688 164.89332031 -1.703125 165.8046875 C-4.68438922 168.65412711 -7.94567698 170.85003571 -11.375 173.125 C-12.02210938 173.56714844 -12.66921875 174.00929688 -13.3359375 174.46484375 C-13.9753125 174.89152344 -14.6146875 175.31820312 -15.2734375 175.7578125 C-15.84497559 176.1408252 -16.41651367 176.52383789 -17.00537109 176.91845703 C-19.56711048 178.30750299 -22.23283408 179.10267334 -25 180 C-24.99886084 180.65388964 -24.99772168 181.30777928 -24.996548 181.98148376 C-24.92938495 220.75329869 -24.87792575 259.52510609 -24.84680401 298.29696744 C-24.84305198 302.95440742 -24.839169 307.6118473 -24.83520508 312.26928711 C-24.83441815 313.19648289 -24.83363122 314.12367867 -24.83282044 315.07897129 C-24.81977356 330.08359958 -24.79612367 345.08819332 -24.76854161 360.09280113 C-24.74046744 375.4937911 -24.72381948 390.89476299 -24.71773452 406.2957775 C-24.71362225 415.79576124 -24.70064317 425.29564731 -24.6762506 434.79560097 C-24.66036858 441.31384143 -24.65560522 447.83203153 -24.65949587 454.35028992 C-24.66141358 458.10858913 -24.6585148 461.8667179 -24.64238358 465.62498665 C-24.62499184 469.70691415 -24.63105816 473.78848131 -24.63923645 477.87043762 C-24.63049793 479.04848129 -24.6217594 480.22652495 -24.61275607 481.44026691 C-24.70666137 498.81598067 -31.78876359 514.63612314 -44 527 C-57.60280899 539.21161261 -72.90428069 544.34274253 -90.93754578 544.23136902 C-92.11298173 544.23222246 -93.28841769 544.2330759 -94.49947292 544.2339552 C-97.7398705 544.23446069 -100.98010379 544.22611064 -104.22047436 544.2140609 C-107.72352727 544.20330929 -111.22657817 544.20430838 -114.72964478 544.20413208 C-120.79291582 544.20253553 -126.85614951 544.19446105 -132.9194088 544.1826992 C-142.50340499 544.16478713 -152.08733582 544.16873261 -161.67134094 544.17634583 C-164.9534368 544.17870064 -168.23553272 544.18094044 -171.51762867 544.18316364 C-172.33768956 544.18372818 -173.15775045 544.18429271 -174.00266167 544.18487435 C-183.32477212 544.19106037 -192.64688174 544.19341584 -201.96899414 544.19360352 C-202.8206372 544.19362695 -203.67228027 544.19365039 -204.5497307 544.19367454 C-218.36733851 544.19342382 -232.18487139 544.17428709 -246.0024549 544.15000685 C-260.19804112 544.12569752 -274.39345989 544.12809949 -288.58904392 544.15368825 C-297.3412599 544.16848896 -306.0929134 544.16145026 -314.84507415 544.12638716 C-320.83861605 544.1042304 -326.83180404 544.10744224 -332.82534059 544.13068654 C-336.28362954 544.14330026 -339.74093936 544.14446287 -343.19914818 544.11510277 C-346.94811171 544.08914346 -350.69451069 544.10600361 -354.44340515 544.13371277 C-355.53649119 544.11584959 -356.62957722 544.09798641 -357.75578707 544.07958192 C-363.2521168 544.08850304 -363.2521168 544.08850304 -367.97991145 546.55065978 C-369.48916078 548.29860576 -370.75218421 550.06085774 -372 552 C-385.79104511 566.20805296 -404.96503967 575.51189916 -424 580 C-425.35351562 580.33837891 -425.35351562 580.33837891 -426.734375 580.68359375 C-441.93931391 583.86959974 -459.08972433 583.1964955 -474 579 C-474.69899414 578.80664062 -475.39798828 578.61328125 -476.11816406 578.4140625 C-491.93792325 573.93168211 -505.56363834 566.81220995 -518 556 C-518.91265625 555.28457031 -518.91265625 555.28457031 -519.84375 554.5546875 C-532.45463071 544.52330512 -542.07052009 528.81267844 -548 514 C-548.35707031 513.154375 -548.71414063 512.30875 -549.08203125 511.4375 C-558.59192009 487.50249889 -557.74700399 460.96742247 -549 437 C-548.65324219 436.03191406 -548.30648437 435.06382812 -547.94921875 434.06640625 C-542.52156939 420.0216641 -534.576324 408.60837347 -524 398 C-522.73542969 396.71222656 -522.73542969 396.71222656 -521.4453125 395.3984375 C-510.39406922 384.55903914 -497.37151743 376.5723192 -482.6328125 371.97265625 C-479.85961711 371.28925417 -479.85961711 371.28925417 -479 369 C-478.89369664 366.87178198 -478.85330857 364.74018457 -478.84178162 362.60934448 C-478.83684364 361.94610015 -478.83190566 361.28285582 -478.82681805 360.59951317 C-478.81140419 358.3669632 -478.80307196 356.13444207 -478.79467773 353.90185547 C-478.78510226 352.30551905 -478.77509238 350.70918518 -478.76467896 349.112854 C-478.73758797 344.77015203 -478.71660116 340.42743913 -478.69667697 336.08469915 C-478.67484323 331.54961999 -478.64744179 327.01457462 -478.62062073 322.47952271 C-478.57065844 313.88769412 -478.52573276 305.2958468 -478.48259836 296.70398152 C-478.43325617 286.92417147 -478.37832687 277.14439533 -478.32291877 267.36461806 C-478.20904446 247.24311029 -478.10221732 227.12157015 -478 207 C-478.93102539 206.85522217 -479.86205078 206.71044434 -480.82128906 206.5612793 C-494.3843488 204.16638879 -506.28582847 195.13026227 -517 187 C-518.39798828 185.95199219 -518.39798828 185.95199219 -519.82421875 184.8828125 C-520.54222656 184.26148438 -521.26023437 183.64015625 -522 183 C-522 182.34 -522 181.68 -522 181 C-522.99 180.67 -523.98 180.34 -525 180 C-534.95554065 169.53391881 -542.46895011 157.27451973 -548 144 C-548.38027344 143.10796875 -548.76054688 142.2159375 -549.15234375 141.296875 C-555.52175105 125.24116149 -557.37516149 107.25230696 -554.75 90.25 C-554.61577637 89.37601562 -554.48155273 88.50203125 -554.34326172 87.6015625 C-553.19168792 80.49560539 -551.49944634 73.76109226 -549 67 C-548.64164063 66.01 -548.28328125 65.02 -547.9140625 64 C-537.67709651 37.61748362 -517.1438537 17.22475742 -491.8203125 5.23828125 C-477.22227469 -1.17110654 -463.11770388 -3.59649437 -447.3125 -3.5 C-446.19739044 -3.49835342 -446.19739044 -3.49835342 -445.05975342 -3.49667358 C-433.10483561 -3.44611644 -422.23725784 -2.24940856 -411 2 C-409.91976562 2.37253906 -408.83953125 2.74507813 -407.7265625 3.12890625 C-395.55308279 7.71393076 -384.68669555 14.72361692 -375.3671875 23.73828125 C-373.03588787 26.03868837 -373.03588787 26.03868837 -370.43359375 28.015625 C-357.44958302 38.60290823 -349.17430308 56.47709075 -344 72 C-262.325 72.495 -262.325 72.495 -179 73 C-178.67 69.37 -178.34 65.74 -178 62 C-177.23597934 58.69276869 -176.43589234 55.54132947 -175.4375 52.3125 C-175.17356445 51.45382324 -174.90962891 50.59514648 -174.63769531 49.71044922 C-165.39162374 20.85522356 -145.71980382 -1.05064292 -119.1875 -15.25 C-78.55207772 -34.50123639 -34.63338017 -27.47333986 0 0 Z M-122.3046875 42.5859375 C-134.26487339 57.61515222 -136.2049702 75.439519 -135 94 C-133.43607717 105.30347475 -127.04285069 116.19643664 -120 125 C-119.34 125 -118.68 125 -118 125 C-117.7628125 125.57878906 -117.525625 126.15757812 -117.28125 126.75390625 C-111.27746785 137.27882922 -96.84792584 141.97333264 -85.98046875 145.203125 C-69.21492874 149.6856547 -53.00261562 146.25797771 -38 138 C-22.99482261 128.67830395 -12.82051145 115.05320717 -8 98 C-4.38843297 81.02563495 -6.90553373 62.63653289 -15.83691406 47.74951172 C-26.02439907 32.42551559 -41.60443985 22.22060417 -59.55078125 18.50390625 C-84.76329791 14.82053745 -105.81835258 24.08771086 -122.3046875 42.5859375 Z M-494 60 C-494.63550781 60.61359375 -495.27101563 61.2271875 -495.92578125 61.859375 C-508.48359082 74.89053881 -511.46232259 91.91195753 -511.20703125 109.2734375 C-510.65122581 126.50681602 -502.16793472 140.43443829 -490 152 C-475.93818266 164.68595129 -459.64073315 168.78829034 -441.08740234 168.13623047 C-436.1665867 167.8150825 -431.64553006 166.58909166 -427 165 C-425.99324219 164.6596875 -424.98648438 164.319375 -423.94921875 163.96875 C-416.49888787 161.16659252 -410.96337179 157.19857194 -405 152 C-404.08089844 151.30003906 -403.16179687 150.60007812 -402.21484375 149.87890625 C-401.11849609 148.94884766 -401.11849609 148.94884766 -400 148 C-400 147.34 -400 146.68 -400 146 C-399.34 146 -398.68 146 -398 146 C-387.4824548 132.30334794 -381.34838344 115.3532863 -383 98 C-385.48002881 82.17780068 -391.93638047 67.82632522 -404 57 C-404.928125 56.071875 -405.85625 55.14375 -406.8125 54.1875 C-418.50274119 44.37786283 -434.53626597 39.1711387 -449.67578125 39.65625 C-467.29985681 41.4787161 -481.37222827 47.215778 -494 60 Z M-340 107 C-340.19618979 108.7379856 -340.38604674 110.47691247 -340.54443359 112.21875 C-341.77920441 125.5460626 -344.75718469 139.06645509 -351 151 C-351.50273437 152.01320313 -352.00546875 153.02640625 -352.5234375 154.0703125 C-356.30370417 161.44268776 -360.57782296 167.75248195 -366 174 C-366.95712891 175.15628906 -366.95712891 175.15628906 -367.93359375 176.3359375 C-376.19069331 186.0716726 -386.16188101 192.52448992 -397 199 C-398.485 199.99 -398.485 199.99 -400 201 C-400.45947225 203.43715941 -400.45947225 203.43715941 -400.38818359 206.31665039 C-400.39764008 207.42863297 -400.40709656 208.54061554 -400.4168396 209.68629456 C-400.41076691 210.89454391 -400.40469421 212.10279327 -400.3984375 213.34765625 C-400.40130768 214.58865585 -400.40417786 215.82965546 -400.40713501 217.10826111 C-400.40918092 219.7423301 -400.40511624 222.3755704 -400.39111328 225.00952148 C-400.37750216 227.69917708 -400.37733952 230.38822619 -400.39111328 233.07788086 C-400.40974695 236.95965557 -400.40736712 240.84085649 -400.3984375 244.72265625 C-400.40451019 245.91673599 -400.41058289 247.11081573 -400.4168396 248.34107971 C-400.33370502 258.31081064 -398.91859186 265.84228246 -391.9609375 273.2109375 C-384.43439644 280.07778174 -376.79963793 282.31199209 -366.78173828 282.22705078 C-365.87378006 282.22734283 -364.96582184 282.22763489 -364.03034973 282.22793579 C-361.04357182 282.22654779 -358.05704658 282.21101148 -355.0703125 282.1953125 C-352.99380632 282.19158049 -350.91729837 282.18873441 -348.84078979 282.18673706 C-343.3860586 282.17911543 -337.93143458 282.15947951 -332.47674561 282.1373291 C-326.90638682 282.11683903 -321.33601064 282.10772858 -315.765625 282.09765625 C-304.84370301 282.07623227 -293.92186043 282.04211404 -283 282 C-282.5270752 280.906875 -282.05415039 279.81375 -281.56689453 278.6875 C-281.16786423 277.76517578 -281.16786423 277.76517578 -280.76077271 276.82421875 C-279.68910329 274.25451636 -278.79827185 271.62619548 -277.875 269 C-273.38831331 257.2914993 -265.96567866 243.40812408 -256.06515503 235.44348145 C-252.8221907 232.68284902 -250.38662024 230.4605536 -249.27534485 226.26243591 C-249.03034729 223.05504436 -249.0223078 219.93052143 -249.10546875 216.71484375 C-249.10170731 215.54095596 -249.09794586 214.36706818 -249.09407043 213.15760803 C-249.08778624 209.41637371 -249.13464916 205.67832622 -249.1875 201.9375 C-249.2223558 197.02986687 -249.23535459 192.12259471 -249.23046875 187.21484375 C-249.2287542 185.45546982 -249.2287542 185.45546982 -249.227005 183.66055298 C-249.06908322 164.69084301 -244.05285539 149.19762926 -230.6328125 135.3671875 C-217.23677246 123.32267673 -202.01406875 118.88354448 -184.4375 118.375 C-183.33341797 118.33632813 -182.22933594 118.29765625 -181.09179688 118.2578125 C-178.39477946 118.1644093 -175.69741369 118.08115734 -173 118 C-173.99 114.04 -174.98 110.08 -176 106 C-197.23528787 105.97688301 -218.47057272 105.95902181 -239.70587063 105.94818783 C-249.56506719 105.94302445 -259.4242558 105.93598095 -269.28344727 105.92456055 C-277.87347817 105.91461499 -286.46350331 105.90814688 -295.05353981 105.90591151 C-299.60481195 105.90460418 -304.15606764 105.90151695 -308.70733452 105.89426994 C-312.98604819 105.88751175 -317.26473853 105.88538263 -321.54345703 105.88689232 C-323.11850677 105.8866159 -324.69355723 105.88460959 -326.26860237 105.88079453 C-328.40964252 105.8758604 -330.55059315 105.87700065 -332.69163513 105.87974548 C-334.49327952 105.87836279 -334.49327952 105.87836279 -336.33132076 105.87695217 C-338.92061111 105.69601526 -338.92061111 105.69601526 -340 107 Z M-212 163 C-216.75160502 169.80770851 -217.13264824 177.09295893 -217.09765625 185.24609375 C-217.0962413 185.90207047 -217.09482635 186.55804718 -217.09336853 187.23390198 C-217.08783031 189.30181702 -217.07529002 191.36961842 -217.0625 193.4375 C-217.05747699 194.85090988 -217.0529155 196.26432148 -217.04882812 197.67773438 C-217.03788126 201.11852568 -217.02066038 204.55925172 -217 208 C-211.43169644 206.91012595 -205.89106594 205.77113113 -200.375 204.4375 C-172.34535577 197.99165847 -144.298885 204.05693109 -120 219 C-95.39964427 235.10133174 -79.307983 259.38363988 -73 288 C-71.65690712 294.86751267 -71.8161613 301.77887962 -71.8125 308.75 C-71.80025391 309.96171875 -71.78800781 311.1734375 -71.77539062 312.421875 C-71.72805877 341.7045174 -84.62923361 367.51332598 -105 388 C-106.96910529 389.70696623 -108.98337511 391.34852529 -111 393 C-113.94393096 395.48878168 -113.97910903 395.79278351 -114.40063477 399.97387695 C-114.42866008 401.64516535 -114.44118097 403.31675792 -114.44140625 404.98828125 C-114.45461411 405.88306686 -114.46782196 406.77785248 -114.48143005 407.69975281 C-114.52235292 410.57069864 -114.54395767 413.44132883 -114.5625 416.3125 C-114.77712688 441.63630367 -116.37735578 461.65159857 -134.015625 481.23828125 C-138.44438975 485.59097943 -143.38909283 488.50794687 -148.875 491.3125 C-149.51058838 491.63831055 -150.14617676 491.96412109 -150.80102539 492.29980469 C-162.08140559 497.75343083 -173.00821118 498.44546555 -185.31323242 498.43237305 C-187.03897802 498.44140454 -188.76471723 498.45173513 -190.490448 498.46325684 C-195.14462411 498.49069011 -199.79867805 498.50009266 -204.45292449 498.50611091 C-209.32830956 498.51553037 -214.20360464 498.54173652 -219.07893372 498.56611633 C-228.29732571 498.60968709 -237.51570014 498.63829184 -246.73416358 498.66143972 C-257.23487556 498.68854204 -267.73549659 498.73245037 -278.23614347 498.77772844 C-299.82404663 498.87043967 -321.41197702 498.94218217 -343 499 C-343.99 502.96 -344.98 506.92 -346 511 C-312.64856201 511.06846332 -279.29714356 511.12154221 -245.94565088 511.15319599 C-242.00665451 511.15694803 -238.06765827 511.160831 -234.12866211 511.16479492 C-233.34449122 511.16558185 -232.56032033 511.16636878 -231.75238668 511.16717956 C-219.06142039 511.18022732 -206.37049494 511.20387768 -193.67955286 511.23145839 C-180.65385901 511.25953014 -167.62818652 511.27618 -154.60246366 511.28226548 C-146.56730786 511.28637826 -138.53226751 511.29936004 -130.49714725 511.3237494 C-124.33192589 511.34150775 -118.16679222 511.34336115 -112.00154877 511.33932304 C-109.4752195 511.34014807 -106.94888583 511.34611134 -104.42258263 511.35761642 C-100.9704909 511.37256593 -97.51889109 511.36894418 -94.06678772 511.36076355 C-93.06968389 511.36950207 -92.07258006 511.3782406 -91.04526097 511.38724393 C-79.27435183 511.31197048 -71.42555075 507.42555075 -63.1875 499.1875 C-57.91018405 491.49769675 -57.56876888 483.74990465 -57.63923645 474.6424408 C-57.63667318 473.42193592 -57.6341099 472.20143105 -57.63146895 470.94394118 C-57.62739915 467.57780994 -57.63670831 464.21220835 -57.65180314 460.84614146 C-57.66480941 457.20822936 -57.66037081 453.57033239 -57.65809631 449.93240356 C-57.65652647 443.63664347 -57.66590537 437.34097696 -57.68280983 431.0452404 C-57.70723456 421.94277941 -57.71500865 412.84036347 -57.7187738 403.73787326 C-57.72533284 388.96820825 -57.74527914 374.19859306 -57.77368164 359.42895508 C-57.80123639 345.08520761 -57.82246304 330.74147369 -57.83520508 316.39770508 C-57.83599325 315.5129319 -57.83678142 314.62815873 -57.83759347 313.71657424 C-57.84150871 309.27774088 -57.8452998 304.83890741 -57.84902918 300.40007389 C-57.88010805 263.60001408 -57.93292892 226.80001093 -58 190 C-58.86198502 189.97854416 -59.72397003 189.95708832 -60.61207581 189.9349823 C-63.85038162 189.85090699 -67.08842445 189.7602995 -70.32643127 189.66545105 C-71.72034281 189.62591866 -73.11432799 189.58889173 -74.50837708 189.55455017 C-84.85107672 189.29742596 -94.16778352 188.47806297 -104 185 C-105.24007812 184.5771875 -106.48015625 184.154375 -107.7578125 183.71875 C-124.45645897 177.71228903 -141.28698886 167.36517402 -152 153 C-152.66 153 -153.32 153 -154 153 C-154 152.34 -154 151.68 -154 151 C-159.22864743 150.92523931 -164.45697628 150.87111237 -169.68603516 150.83520508 C-171.46082996 150.82021907 -173.23558837 150.79982318 -175.01025391 150.77368164 C-190.31654395 150.55403595 -201.19859454 150.85582384 -212 163 Z M-445 212 C-445 262.82 -445 313.64 -445 366 C-434.605 367.485 -434.605 367.485 -424 369 C-420.12091402 370.00003902 -416.5900311 370.9558424 -412.875 372.3125 C-411.56486938 372.77305786 -411.56486938 372.77305786 -410.22827148 373.24291992 C-383.74744992 382.8082545 -362.34230948 402.83634164 -350 428 C-344.80929733 440.06075032 -341.79445582 453.0232818 -340 466 C-318.30283522 466.11699287 -296.60572274 466.20506624 -274.90830612 466.25906086 C-264.83296897 466.28480201 -254.75782824 466.31987413 -244.68261719 466.37719727 C-235.8972762 466.42715767 -227.11207752 466.45932071 -218.32659841 466.47044247 C-213.67811155 466.47693989 -209.03003167 466.49212472 -204.38167572 466.52865028 C-199.99854513 466.56280988 -195.61598575 466.57301307 -191.23273468 466.56553841 C-189.63163642 466.5669041 -188.03051731 466.57671721 -186.42953491 466.59602737 C-175.10382827 466.72583006 -164.79284359 465.61870388 -156 457.6875 C-150.02087084 451.00837523 -147.86360286 444.09854783 -147.90234375 435.265625 C-147.90717773 433.32236328 -147.90717773 433.32236328 -147.91210938 431.33984375 C-147.92046402 429.97656183 -147.92892896 428.61328058 -147.9375 427.25 C-147.94251832 425.87109535 -147.94708065 424.49218896 -147.95117188 423.11328125 C-147.96295907 419.74214341 -147.97941365 416.37109372 -148 413 C-148.93054199 413.23058105 -149.86108398 413.46116211 -150.81982422 413.69873047 C-179.63110807 420.55378583 -209.4613399 416.1127299 -234.7890625 401.1015625 C-238.79660331 398.47862216 -242.48174079 395.59187879 -246.109375 392.46875 C-247.86421872 390.79550377 -247.86421872 390.79550377 -250 391 C-250 390.34 -250 389.68 -250 389 C-251.52340515 387.53817841 -251.52340515 387.53817841 -253.5 386 C-265.63648927 375.6401044 -273.28397736 361.67223253 -279 347 C-279.3815625 346.05769531 -279.763125 345.11539063 -280.15625 344.14453125 C-282.54444769 337.73077307 -283.65542102 331.34550189 -284.61328125 324.6015625 C-284.7481897 323.67641846 -284.88309814 322.75127441 -285.02209473 321.7980957 C-285.35190198 319.53259046 -285.67776468 317.26659246 -286 315 C-287.10230453 314.99635437 -288.20460907 314.99270874 -289.34031677 314.98895264 C-299.79837191 314.95179074 -310.25613834 314.89379006 -320.71397305 314.81609726 C-326.08870489 314.77681809 -331.46327768 314.74453461 -336.83813477 314.72900391 C-342.03847608 314.71370731 -347.23837953 314.67903564 -352.43852425 314.63169098 C-354.40889716 314.61700992 -356.37933263 314.60896674 -358.34976006 314.60811615 C-380.40596646 314.58904365 -399.27892867 311.21938047 -415.8203125 295.41015625 C-419.54099264 291.29607086 -422.35057654 286.85840569 -425 282 C-425.47308594 281.14792969 -425.94617188 280.29585937 -426.43359375 279.41796875 C-433.87226284 264.69514299 -433.50519163 248.08510702 -433.6875 232 C-433.72076043 229.95310439 -433.75525773 227.9062285 -433.79101562 225.859375 C-433.8749021 220.90636101 -433.94217218 215.95338394 -434 211 C-437.68178701 211 -441.34664421 211.54333053 -445 212 Z M-227.08984375 266.61328125 C-239.59391311 282.23697528 -243.05973902 299.48313963 -242 319 C-240.18446778 334.55911112 -231.23580413 349.34863735 -219.3359375 359.20703125 C-202.58464699 371.92385602 -185.12611154 375.10520308 -164.47265625 372.56640625 C-147.51519911 368.90177457 -133.48267264 358.53132613 -124 344.1875 C-116.64627508 332.29046414 -114 319.83744953 -114 306 C-114 305.10796875 -114 304.2159375 -114 303.296875 C-114.87557874 286.77032628 -123.64140937 272.41122036 -135.375 261.25 C-148.11160778 250.33290762 -164.25491769 244.36709926 -181.0546875 244.75 C-198.97749455 246.27129927 -214.6441701 253.60538005 -227.08984375 266.61328125 Z M-495.421875 431.15234375 C-508.86192873 446.8878522 -512.08646802 463.76921619 -511 484 C-509.2849626 498.03498492 -501.99319931 510.26977962 -492 520 C-491.40960938 520.62261719 -490.81921875 521.24523437 -490.2109375 521.88671875 C-479.27200411 532.60880104 -462.92194547 538.05433804 -447.9375 538.25 C-430.65168512 538.06285043 -414.42807767 532.34658208 -402 520 C-389.65487667 506.11287008 -382.57562149 490.1121906 -382.78515625 471.27734375 C-383.8901439 454.42125946 -391.40197204 438.30592253 -404 427 C-404.50917969 426.52175781 -405.01835937 426.04351563 -405.54296875 425.55078125 C-418.01393987 414.22131779 -433.73734375 409.53601578 -450.296875 409.81640625 C-468.12249537 410.70016591 -483.20183179 418.13147246 -495.421875 431.15234375 Z " fill="#8C51FD" transform="translate(664,262)"/>
<path d="M0 0 C0.66 0 1.32 0 2 0 C0.51386544 3.98520659 -1.36946974 7.59894028 -3.4375 11.3125 C-6.06758854 16.13432899 -8.26497659 20.79492978 -10 26 C-10.33 26 -10.66 26 -11 26 C-10.50377075 20.16739776 -8.77698522 15.90031531 -6.0625 10.75 C-5.70220703 10.04359375 -5.34191406 9.3371875 -4.97070312 8.609375 C-3.43020355 5.61348633 -1.87295112 2.80942668 0 0 Z " fill="#8351EE" transform="translate(502,285)"/>
<path d="M0 0 C0.33 1.32 0.66 2.64 1 4 C0.21625 4.53625 -0.5675 5.0725 -1.375 5.625 C-4.33426299 8.30242842 -5.04608256 10.18433025 -6 14 C-6.99 13.67 -7.98 13.34 -9 13 C-11.6569191 13.87914688 -11.6569191 13.87914688 -14 15 C-12.85601077 11.56803232 -12.13797957 11.15805749 -9.25 9.1875 C-5.47590534 6.47911193 -2.80833142 3.68593499 0 0 Z " fill="#8A57F3" transform="translate(603,757)"/>
<path d="M0 0 C0 0.66 0 1.32 0 2 C-1.43570266 2.81567174 -2.87363434 3.62742093 -4.3125 4.4375 C-5.11300781 4.88996094 -5.91351563 5.34242188 -6.73828125 5.80859375 C-9 7 -9 7 -12 8 C-12.28875 8.66 -12.5775 9.32 -12.875 10 C-14 12 -14 12 -16.625 12.75 C-17.40875 12.8325 -18.1925 12.915 -19 13 C-19 12.34 -19 11.68 -19 11 C-16.57242822 9.22509654 -14.14828372 7.56520218 -11.625 5.9375 C-10.57699219 5.24817383 -10.57699219 5.24817383 -9.5078125 4.54492188 C-2.56696265 0 -2.56696265 0 0 0 Z " fill="#8552F2" transform="translate(167,271)"/>
<path d="M0 0 C0.7425 0.78375 1.485 1.5675 2.25 2.375 C4.72323885 5.00302798 4.72323885 5.00302798 7.1875 6.0625 C9.56240622 7.29089977 10.14283448 8.50642759 11 11 C10.67 11.66 10.34 12.32 10 13 C6 9 2 5 -2 1 C-1.34 0.67 -0.68 0.34 0 0 Z " fill="#8855EF" transform="translate(631,289)"/>
<path d="M0 0 C0 3 0 3 -2.3125 5.6875 C-5 8 -5 8 -8 8 C-7.34 6.68 -6.68 5.36 -6 4 C-5.34 4 -4.68 4 -4 4 C-3.67 3.01 -3.34 2.02 -3 1 C-2.01 0.67 -1.02 0.34 0 0 Z " fill="#8648F6" transform="translate(266,778)"/>
<path d="M0 0 C1.875 0.1875 1.875 0.1875 4 1 C4.70211894 2.65204456 5.36971413 4.31923769 6 6 C6.99 6.33 7.98 6.66 9 7 C9 7.66 9 8.32 9 9 C5.18063472 7.44396229 2.73955562 5.04395069 0 2 C0 1.34 0 0.68 0 0 Z " fill="#854FF4" transform="translate(142,812)"/>
<path d="M0 0 C4.33034194 3.84919283 6.6560756 7.72289646 9 13 C5.34646845 11.56356879 4.06021834 9.94164969 2.25 6.5 C1.82203125 5.7059375 1.3940625 4.911875 0.953125 4.09375 C0 2 0 2 0 0 Z " fill="#834FEC" transform="translate(120,783)"/>
<path d="M0 0 C0 3 0 3 -1.625 5.125 C-4.44225392 7.34914783 -6.46850054 7.67895459 -10 8 C-10 7.34 -10 6.68 -10 6 C-9.36191406 5.65066406 -8.72382812 5.30132812 -8.06640625 4.94140625 C-7.24011719 4.48636719 -6.41382813 4.03132813 -5.5625 3.5625 C-4.73878906 3.11003906 -3.91507813 2.65757812 -3.06640625 2.19140625 C-1.07691202 1.16337603 -1.07691202 1.16337603 0 0 Z " fill="#8F4BF5" transform="translate(632,395)"/>
<path d="M0 0 C0.33 0 0.66 0 1 0 C0 7.42857143 0 7.42857143 -1 11 C-1.66 11 -2.32 11 -3 11 C-3.39253254 6.55129785 -2.15305957 3.85756507 0 0 Z " fill="#894AF6" transform="translate(532,318)"/>
<path d="M0 0 C0 0.66 0 1.32 0 2 C-1.95927063 3.7143618 -3.95880212 5.38405168 -6 7 C-6.33 5.68 -6.66 4.36 -7 3 C-3.375 0 -3.375 0 0 0 Z " fill="#7949F4" transform="translate(249,792)"/>
<path d="M0 0 C1.48285242 0.95262034 2.96118201 1.91228405 4.4375 2.875 C5.67306641 3.67550781 5.67306641 3.67550781 6.93359375 4.4921875 C9 6 9 6 10 8 C6.01328937 6.63312778 3.11505367 4.84804907 0 2 C0 1.34 0 0.68 0 0 Z " fill="#8958EE" transform="translate(277,647)"/>
<path d="M0 0 C2.5 2.3125 2.5 2.3125 5 5 C5 5.99 5 6.98 5 8 C4.566875 7.525625 4.13375 7.05125 3.6875 6.5625 C1.97690387 4.76313043 1.97690387 4.76313043 -1 4 C-0.67 2.68 -0.34 1.36 0 0 Z " fill="#984CF5" transform="translate(567,501)"/>
<path d="M0 0 C0.99 0.33 1.98 0.66 3 1 C0.9927092 4.0109362 0.16115776 4.63016497 -3 6 C-2.42655063 3.13275314 -2.1385485 2.1385485 0 0 Z " fill="#933DFA" transform="translate(260,412)"/>
<path d="M0 0 C3.36591866 1.44253657 5.51047079 3.33264727 8 6 C7.67 6.99 7.34 7.98 7 9 C5.14453125 6.70507812 5.14453125 6.70507812 3.2890625 4.41015625 C2.0333609 2.86733563 2.0333609 2.86733563 0 2 C0 1.34 0 0.68 0 0 Z " fill="#8052EC" transform="translate(670,270)"/>
<path d="M0 0 C2.64 0.33 5.28 0.66 8 1 C8 1.33 8 1.66 8 2 C3.71 2.66 -0.58 3.32 -5 4 C-5 3.34 -5 2.68 -5 2 C-3.35 2 -1.7 2 0 2 C0 1.34 0 0.68 0 0 Z " fill="#8E64EC" transform="translate(232,840)"/>
<path d="M0 0 C1.48199902 0.44909061 2.96055236 0.90956564 4.4375 1.375 C5.26121094 1.63023437 6.08492187 1.88546875 6.93359375 2.1484375 C9 3 9 3 10 5 C5.2482602 4.56802365 3.07999946 3.67230705 0 0 Z " fill="#8350F0" transform="translate(164,829)"/>
<path d="M0 0 C3.37503669 1.1858237 5.64722731 2.27573689 8 5 C7.67 5.99 7.34 6.98 7 8 C6.21625 7.195625 5.4325 6.39125 4.625 5.5625 C2.28017144 3.01309583 2.28017144 3.01309583 0 2 C0 1.34 0 0.68 0 0 Z " fill="#8955EF" transform="translate(546,483)"/>
<path d="M0 0 C3.59391114 1.33488128 6.75490696 2.96022723 10 5 C9.67 5.66 9.34 6.32 9 7 C6.03 5.35 3.06 3.7 0 2 C0 1.34 0 0.68 0 0 Z " fill="#8959EB" transform="translate(263,269)"/>
<path d="M0 0 C0.66 0.99 1.32 1.98 2 3 C0.68 3.99 -0.64 4.98 -2 6 C-2 5.34 -2 4.68 -2 4 C-2.66 4 -3.32 4 -4 4 C-4 3.34 -4 2.68 -4 2 C-2.68 1.34 -1.36 0.68 0 0 Z " fill="#8044F5" transform="translate(172,267)"/>
<path d="M0 0 C0.66 0.66 1.32 1.32 2 2 C-0.97 4.475 -0.97 4.475 -4 7 C-4 4 -4 4 -2 1.8125 C-1.34 1.214375 -0.68 0.61625 0 0 Z " fill="#8845F9" transform="translate(621,784)"/>
<path d="M0 0 C0.66 0.33 1.32 0.66 2 1 C0.00045871 3.99931194 -0.73795271 4.81380099 -4 6 C-4.99 5.67 -5.98 5.34 -7 5 C-4.69 3.35 -2.38 1.7 0 0 Z " fill="#9057EE" transform="translate(534,253)"/>
</svg>
