<?xml version="1.0" encoding="UTF-8"?>
<svg version="1.1" xmlns="http://www.w3.org/2000/svg" width="810" height="1080">
<path d="M0 0 C1.64162109 0.40025391 1.64162109 0.40025391 3.31640625 0.80859375 C15.75051091 4.24132203 27.60694646 10.39379348 38 18 C38.66 18.45761719 39.32 18.91523438 40 19.38671875 C45.5190749 23.3212155 50.5648366 27.86670903 55 33 C55 33.66 55 34.32 55 35 C55.99 35.33 56.98 35.66 58 36 C77.53334809 58.69824499 83.64786669 87.85745235 82 117 C80.2587171 138.8511366 70.22936751 159.57078899 56 176 C55.35160156 176.78117188 54.70320312 177.56234375 54.03515625 178.3671875 C49.58322517 183.60371634 44.7999351 188.25771823 39 192 C38.34 192 37.68 192 37 192 C37 192.66 37 193.32 37 194 C34.70870707 195.31315613 32.4169845 196.62555193 30.125 197.9375 C29.47402344 198.31068359 28.82304688 198.68386719 28.15234375 199.06835938 C23.2265625 201.88671875 23.2265625 201.88671875 21 203 C20.99978263 203.65199104 20.99956526 204.30398208 20.99934131 204.97573042 C20.98580959 243.66442354 20.94625083 282.35301238 20.87314438 321.04164079 C20.86437819 325.69263649 20.85582828 330.34363256 20.84741211 334.99462891 C20.84489352 336.38345525 20.84489352 336.38345525 20.84232404 337.80033869 C20.81569349 352.76924385 20.80656179 367.73811072 20.80395857 382.70703715 C20.80089328 398.07985647 20.7788801 413.45256551 20.73947543 428.82533503 C20.71577459 438.30229456 20.7066483 447.77903361 20.71648689 457.25601864 C20.72182483 463.76502429 20.70866835 470.27383334 20.6813371 476.78278303 C20.66613018 480.53165115 20.65872355 484.28007897 20.67340279 488.02895927 C20.75372842 510.61995039 19.31318788 530.61629154 3.06640625 548.0625 C-11.45680775 561.679729 -27.60485252 567.52932364 -47.38059998 567.35162354 C-49.14275513 567.35418533 -49.14275513 567.35418533 -50.94050938 567.35679889 C-54.16054831 567.35865211 -57.38021087 567.34726876 -60.60019386 567.33012652 C-64.08817713 567.31497414 -67.57615336 567.31751923 -71.06416321 567.31809998 C-77.09519172 567.31702902 -83.1261309 567.30585955 -89.1571331 567.28842926 C-98.69104963 567.26156246 -108.22486033 567.26357923 -117.75880432 567.26971436 C-121.02644627 567.27143646 -124.29408828 567.27292356 -127.56173038 567.27430344 C-128.78620412 567.27482201 -128.78620412 567.27482201 -130.03541471 567.27535106 C-139.30478111 567.27876531 -148.57414123 567.27505488 -157.84350586 567.26904297 C-158.6898963 567.26850091 -159.53628674 567.26795884 -160.40832538 567.26740035 C-174.15130972 567.25801577 -187.89423581 567.23266695 -201.63719153 567.20414236 C-215.76509348 567.17549755 -229.89284269 567.17369381 -244.02075821 567.19435859 C-252.7271957 567.20604696 -261.43303459 567.19531975 -270.13939268 567.15574065 C-276.09877644 567.13044326 -282.05782033 567.13036323 -288.01722359 567.15019974 C-291.45530101 567.16082632 -294.8923846 567.15997098 -298.3303566 567.12856102 C-302.057196 567.1003659 -305.78148324 567.11499189 -309.50828552 567.14044189 C-311.13798543 567.11262394 -311.13798543 567.11262394 -312.80060858 567.08424401 C-318.24232386 567.08451666 -318.24232386 567.08451666 -322.92239773 569.51454306 C-324.52205901 571.31982606 -324.52205901 571.31982606 -325.76611191 573.21782565 C-327.88544538 576.27889883 -330.87175926 578.3291805 -333.8125 580.5625 C-334.73542847 581.27237061 -334.73542847 581.27237061 -335.67700195 581.99658203 C-358.61449381 599.50570457 -386.68398019 608.0288916 -415.54541016 604.70703125 C-431.53580726 602.41697245 -447.67304071 597.31549997 -461 588 C-462.37285156 587.06800781 -462.37285156 587.06800781 -463.7734375 586.1171875 C-469.84611514 581.79777637 -475.22004345 577.05653848 -480.5 571.8125 C-481.08749023 571.23048828 -481.67498047 570.64847656 -482.28027344 570.04882812 C-485.66926255 566.60299651 -488.44266109 563.12891942 -491 559 C-491.73863281 557.83597656 -491.73863281 557.83597656 -492.4921875 556.6484375 C-508.15608292 530.89593147 -514.70695276 502.67128851 -508.03125 472.78515625 C-503.13349841 454.80818167 -495.70492917 438.85062326 -483 425 C-482.56349121 424.5157959 -482.12698242 424.0315918 -481.67724609 423.53271484 C-469.15775167 409.77672715 -451.65227948 397.10871325 -433 394 C-433 339.88 -433 285.76 -433 230 C-435.97 229.34 -438.94 228.68 -442 228 C-444.66454218 226.90740381 -447.14312224 225.81215208 -449.6875 224.5 C-450.37320068 224.1481665 -451.05890137 223.79633301 -451.76538086 223.43383789 C-470.33279039 213.63526376 -485.77389131 199.39452478 -496 181 C-496.63421875 179.86949219 -497.2684375 178.73898437 -497.921875 177.57421875 C-511.43860098 152.07150712 -513.99726717 122.4425589 -505.78125 94.80859375 C-499.9994805 76.53803616 -490.0010708 62.02724046 -476.6875 48.375 C-475.93182739 47.59237793 -475.93182739 47.59237793 -475.16088867 46.79394531 C-472.60394098 44.24340387 -470.6875168 42.36787579 -467 42 C-467 41.34 -467 40.68 -467 40 C-464.79836407 38.4774302 -462.61894594 37.09779968 -460.3125 35.75 C-459.62623535 35.34813477 -458.9399707 34.94626953 -458.23291016 34.53222656 C-440.13163748 24.07743369 -423.01733889 19.54479408 -402.125 19.5 C-400.85479004 19.49371582 -399.58458008 19.48743164 -398.27587891 19.48095703 C-372.68904185 19.82246853 -350.23482726 29.36645414 -331 46 C-330.41605469 46.44085938 -329.83210937 46.88171875 -329.23046875 47.3359375 C-314.60748868 58.63706964 -304.70288384 77.89134848 -299 95 C-217.325 95.495 -217.325 95.495 -134 96 C-133.34 91.38 -132.68 86.76 -132 82 C-131.36174965 79.13529492 -130.71986988 76.41652705 -129.875 73.625 C-129.55849487 72.5719165 -129.55849487 72.5719165 -129.2355957 71.49755859 C-125.28753032 59.04243517 -118.99565733 48.26672431 -111 38 C-110.34 37.01 -109.68 36.02 -109 35 C-108.34 35 -107.68 35 -107 35 C-106.76796875 34.443125 -106.5359375 33.88625 -106.296875 33.3125 C-104.65976787 30.39332101 -102.62264328 28.35826363 -100.25 26 C-99.40953125 25.154375 -98.5690625 24.30875 -97.703125 23.4375 C-94.94237638 20.94803881 -92.12961075 18.99991707 -89 17 C-88.00484375 16.30261719 -87.0096875 15.60523438 -85.984375 14.88671875 C-72.84032225 5.94939786 -58.69255359 0.5596386 -43 -2 C-41.90945313 -2.18304688 -40.81890625 -2.36609375 -39.6953125 -2.5546875 C-26.28967435 -4.17016609 -13.07543749 -3.223507 0 0 Z M-76.34765625 64.54296875 C-81.13828958 70.17532083 -84.46857213 76.05869955 -87 83 C-87.25894043 83.70608398 -87.51788086 84.41216797 -87.78466797 85.13964844 C-90.05479511 91.88385721 -90.5412109 98.16226806 -90.5 105.25 C-90.49645508 106.34884521 -90.49291016 107.44769043 -90.48925781 108.57983398 C-90.31132653 117.31200518 -88.8932084 124.11202125 -85 132 C-84.68933594 132.74636719 -84.37867188 133.49273437 -84.05859375 134.26171875 C-77.66078352 148.86479233 -64.05797298 159.89604506 -49.5625 165.6875 C-32.45399929 171.91233207 -16.63177647 171.61784612 0.2890625 164.64453125 C10.8466393 159.65975132 18.60989635 152.95674233 26 144 C26.67160156 143.23429687 27.34320312 142.46859375 28.03515625 141.6796875 C30.3239377 138.55820822 31.74545049 135.33390905 33.125 131.75 C33.37636719 131.13253906 33.62773438 130.51507813 33.88671875 129.87890625 C40.20220956 113.84218876 40.13296923 95.40815325 33.55859375 79.515625 C29.96446021 71.51192744 25.30079536 65.12963623 19 59 C17.96939453 57.93845703 17.96939453 57.93845703 16.91796875 56.85546875 C4.73165801 45.03090378 -11.33978505 40.44201124 -28.03417969 40.65039062 C-48.45690709 41.38083133 -62.92102149 49.99930947 -76.34765625 64.54296875 Z M-450.07421875 83.16796875 C-463.54538425 98.89715819 -467.41990126 116.75663713 -466 137 C-463.99326518 153.01772119 -454.72135207 168.006377 -442.125 177.8125 C-425.97560563 189.33036995 -409.15046229 193.00958949 -389.578125 190.57421875 C-371.70047772 186.63630455 -357.3629459 175.68848401 -347.3125 160.6875 C-338.64123212 146.61127143 -335.61557192 130.01475815 -339.1796875 113.82202148 C-343.56218405 95.94017139 -353.40528454 81.84615326 -369 72 C-395.15704478 56.17359658 -429.03277799 61.17550242 -450.07421875 83.16796875 Z M-295 129 C-295.66 134.94 -296.32 140.88 -297 147 C-297.75371382 150.64006707 -298.50546883 154.03241478 -299.5625 157.5625 C-299.94668091 158.86755493 -299.94668091 158.86755493 -300.33862305 160.19897461 C-304.6359075 173.99989313 -311.88131523 185.86435707 -321 197 C-321.54914063 197.71285156 -322.09828125 198.42570312 -322.6640625 199.16015625 C-330.62554937 209.02377175 -343.21975099 218.39834023 -355 223 C-355.09309011 230.53707979 -355.16396136 238.0740992 -355.20724869 245.61162472 C-355.2280352 249.11246632 -355.25618599 252.61291173 -355.30175781 256.11352539 C-355.35393628 260.14733466 -355.37301886 264.18073428 -355.390625 268.21484375 C-355.41127014 269.45894516 -355.43191528 270.70304657 -355.45318604 271.98484802 C-355.45583924 282.35219781 -353.06463077 289.56680882 -346.00390625 297.20703125 C-339.05872803 303.42113808 -332.13981157 305.15124832 -323.03051758 305.11352539 C-321.65460701 305.11374443 -321.65460701 305.11374443 -320.25090027 305.1139679 C-317.21541997 305.11327057 -314.18000084 305.10548656 -311.14453125 305.09765625 C-309.04131606 305.09579143 -306.93810043 305.09436783 -304.83488464 305.09336853 C-299.29630334 305.08954839 -293.7577482 305.07972237 -288.21917725 305.06866455 C-282.56864781 305.05843964 -276.91811415 305.05386859 -271.26757812 305.04882812 C-260.17837391 305.03809968 -249.08918913 305.02102926 -238 305 C-237.35725704 303.39827603 -236.71502033 301.79634891 -236.07299805 300.19433594 C-235.71529831 299.30228455 -235.35759857 298.41023315 -234.98905945 297.4911499 C-234.25084985 295.63181701 -233.53549123 293.76338133 -232.83203125 291.890625 C-228.30701235 280.17065268 -220.66604975 266.4229373 -210.94451904 258.27783203 C-207.73036328 255.5759996 -205.37077686 253.41658215 -204.2869873 249.27587891 C-204.04678997 246.07447216 -204.04834427 242.95906666 -204.140625 239.75 C-204.13854034 237.99272583 -204.13854034 237.99272583 -204.13641357 236.19995117 C-204.1367239 232.46534463 -204.18965611 228.73408008 -204.25 225 C-204.51458786 200.02094647 -204.09022721 177.46475438 -185.50390625 158.39306641 C-172.46074625 146.31120424 -156.25821858 141.89953911 -138.9375 141.375 C-137.35291992 141.31699219 -137.35291992 141.31699219 -135.73632812 141.2578125 C-133.15780941 141.16447246 -130.5789298 141.08119249 -128 141 C-128.99 137.04 -129.98 133.08 -131 129 C-185.12 129 -239.24 129 -295 129 Z M-167 186 C-171.62346147 192.71618614 -172.12977812 199.55547086 -172.09765625 207.5859375 C-172.0962413 208.28772125 -172.09482635 208.989505 -172.09336853 209.71255493 C-172.0878129 211.93341504 -172.07526892 214.15417084 -172.0625 216.375 C-172.05747926 217.88932145 -172.05291736 219.4036445 -172.04882812 220.91796875 C-172.03785807 224.61201252 -172.02062449 228.30599606 -172 232 C-170.89785156 231.66226563 -169.79570312 231.32453125 -168.66015625 230.9765625 C-138.53599153 222.00397735 -109.75041186 223.7919552 -81.5 238.1875 C-57.29419094 251.67734775 -39.10581976 273.78173375 -31.03125 300.296875 C-30.6909375 301.51890625 -30.350625 302.7409375 -30 304 C-29.6803125 305.09828125 -29.360625 306.1965625 -29.03125 307.328125 C-24.85570932 324.26226219 -25.11922764 344.26032292 -30 361 C-30.35191406 362.24523437 -30.70382812 363.49046875 -31.06640625 364.7734375 C-35.9216698 381.00424231 -44.76929038 394.43150714 -56.0625 406.875 C-56.54485107 407.41060547 -57.02720215 407.94621094 -57.52416992 408.49804688 C-60.10256021 411.26895814 -62.69938495 413.58985105 -65.80859375 415.7578125 C-69.0142285 417.63281749 -69.0142285 417.63281749 -70 420 C-70.06283118 422.74187749 -70.0667329 425.45843821 -70.02734375 428.19921875 C-70.0146699 429.90169047 -70.00231108 431.60416456 -69.99023438 433.30664062 C-69.96569664 435.9763946 -69.93802786 438.64602271 -69.90405273 441.31567383 C-69.61814401 465.2937354 -72.07880869 485.80173765 -89 504 C-92.67026346 507.48602006 -96.70452048 510.33150268 -101 513 C-101.66128906 513.42410156 -102.32257813 513.84820313 -103.00390625 514.28515625 C-114.8729467 521.02718139 -128.42529921 521.59125983 -141.67553711 521.54589844 C-143.39202297 521.5546563 -145.1085007 521.56514969 -146.82496643 521.57722473 C-151.43556769 521.60483469 -156.04589928 521.60849501 -160.65657115 521.60750484 C-165.49323965 521.61065568 -170.32979051 521.63631858 -175.16639709 521.65948486 C-184.30321565 521.69988333 -193.43996312 521.7203474 -202.57685715 521.73345876 C-212.98819485 521.74938382 -223.39941254 521.78782236 -233.81068027 521.82805204 C-255.20708048 521.91022968 -276.60347479 521.96445974 -298 522 C-298.99 525.96 -299.98 529.92 -301 534 C-267.53819874 534.09129968 -234.07643214 534.16206411 -200.61453394 534.20426132 C-196.66180497 534.20926399 -192.70907625 534.2144413 -188.75634766 534.21972656 C-187.57599886 534.22130043 -187.57599886 534.22130043 -186.37180464 534.22290608 C-173.63946472 534.24029943 -160.90719723 534.27183119 -148.17490025 534.30861118 C-135.10513306 534.34605044 -122.03540373 534.36824216 -108.96558511 534.37635398 C-100.90429024 534.38183558 -92.84320011 534.39913296 -84.78196828 534.43166587 C-78.59495945 534.45535922 -72.40810589 534.45781231 -66.22105789 534.45243073 C-63.68708029 534.45353002 -61.15309485 534.46147133 -58.61916351 534.4768219 C-55.15416154 534.49678106 -51.69002903 534.49191663 -48.2250061 534.48101807 C-47.22692417 534.49266943 -46.22884223 534.5043208 -45.20051539 534.51632524 C-35.47491309 534.43388313 -27.75422961 531.48535871 -20.6875 524.7890625 C-12.99130707 516.62967277 -12.70484238 508.53204731 -12.75949097 497.88294983 C-12.75778212 496.6641538 -12.75607327 495.44535778 -12.75431263 494.18962854 C-12.75159369 490.81908927 -12.75782229 487.44878365 -12.76786876 484.0782727 C-12.77652231 480.43896174 -12.77358175 476.79965772 -12.77206421 473.16033936 C-12.77101656 466.8591091 -12.77728059 460.55792033 -12.78853989 454.25670052 C-12.80480823 445.14625045 -12.81000426 436.03582041 -12.81251587 426.92535739 C-12.81689088 412.14350489 -12.83019471 397.36167449 -12.84912109 382.57983398 C-12.86748492 368.22241323 -12.88163897 353.86499849 -12.89013672 339.50756836 C-12.89066217 338.62226974 -12.89118761 337.73697112 -12.89172898 336.82484526 C-12.8943391 332.38347058 -12.8968665 327.94209585 -12.89935279 323.5007211 C-12.92007924 286.6671318 -12.95529949 249.83356762 -13 213 C-13.83136475 212.97887146 -14.66272949 212.95774292 -15.51928711 212.93597412 C-18.64497634 212.85293203 -21.77038122 212.76310474 -24.89575195 212.66888428 C-26.89715521 212.6105509 -28.89877587 212.55983563 -30.90039062 212.50927734 C-40.48258207 212.21360519 -48.89657089 211.14424156 -58 208 C-59.64162109 207.45859375 -59.64162109 207.45859375 -61.31640625 206.90625 C-74.13991205 202.33855118 -85.76415329 195.98801381 -96 187 C-96.72960937 186.39027344 -97.45921875 185.78054688 -98.2109375 185.15234375 C-101.29915636 182.54056015 -103.78980457 180.31129708 -106.07397461 176.9284668 C-107.63086129 175.0603656 -108.54031025 174.1335912 -110.89167786 173.45025635 C-113.18282389 173.2561663 -115.40453067 173.24658194 -117.703125 173.30859375 C-118.54035095 173.30996841 -119.3775769 173.31134308 -120.24017334 173.3127594 C-122.00871558 173.32180231 -123.77723563 173.34538938 -125.54541016 173.38256836 C-128.22776746 173.43704845 -130.90699285 173.444099 -133.58984375 173.44335938 C-135.31513057 173.45811989 -137.04039662 173.47561139 -138.765625 173.49609375 C-139.95203583 173.50110146 -139.95203583 173.50110146 -141.16241455 173.50621033 C-152.24731186 173.78390993 -159.59353626 177.79427759 -167 186 Z M-400 235 C-400 285.82 -400 336.64 -400 389 C-393.4 389.99 -386.8 390.98 -380 392 C-361.71399261 396.57150185 -343.71863793 404.16041834 -330.23046875 417.80078125 C-328.28469751 420.23403363 -328.28469751 420.23403363 -326 420 C-325.74476563 420.57878906 -325.48953125 421.15757812 -325.2265625 421.75390625 C-323.8760794 424.22692466 -322.32815919 425.91041646 -320.375 427.9375 C-306.51213204 443.28208754 -299.22309253 463.1473773 -295.93261719 483.29077148 C-295.75672058 484.36254135 -295.58082397 485.43431122 -295.39959717 486.53855896 C-295.2677301 487.3508345 -295.13586304 488.16311005 -295 489 C-273.23370962 489.0701169 -251.46743789 489.12300134 -229.70105743 489.15543652 C-219.59428632 489.17089779 -209.48758542 489.19197322 -199.38085938 489.22631836 C-190.57065391 489.2562433 -181.76049931 489.27558038 -172.95024443 489.28226548 C-168.28635072 489.28617249 -163.62260252 489.29533916 -158.95875549 489.31719017 C-154.5658843 489.3376042 -150.17321808 489.34382387 -145.78030396 489.33932304 C-144.17109563 489.34014605 -142.56188021 489.34608239 -140.95271301 489.35761642 C-129.25863963 489.43730052 -120.10895199 488.71231518 -111.1796875 480.28125 C-102.59168978 471.2261227 -102.58025743 462.02006856 -102.8125 449.9375 C-102.82758044 448.58139514 -102.84126288 447.22527398 -102.85351562 445.86914062 C-102.88864164 442.57900398 -102.9378336 439.28971817 -103 436 C-103.91394531 436.2165625 -104.82789063 436.433125 -105.76953125 436.65625 C-135.11882334 443.00591078 -165.15228796 439.5186011 -190.5859375 423.30078125 C-195.31454537 420.17422257 -199.70215854 416.69163598 -204 413 C-205.05380859 412.12794922 -205.05380859 412.12794922 -206.12890625 411.23828125 C-210.85062825 407.2987435 -210.85062825 407.2987435 -212 405 C-212.66 405 -213.32 405 -214 405 C-214.25394531 404.443125 -214.50789062 403.88625 -214.76953125 403.3125 C-216.18264196 400.65674907 -217.87102656 398.39817319 -219.6875 396 C-226.04443635 387.26781848 -231.02929693 378.64512362 -234.75 368.5 C-235.03174072 367.76080322 -235.31348145 367.02160645 -235.60375977 366.26000977 C-237.72508853 360.15683739 -238.68386195 354.00169397 -239.59863281 347.63085938 C-239.73459869 346.70360046 -239.87056458 345.77634155 -240.01065063 344.82098389 C-240.34352807 342.54775491 -240.67322116 340.27411227 -241 338 C-242.10452515 337.99635437 -243.20905029 337.99270874 -244.3470459 337.98895264 C-254.82012875 337.95180976 -265.29292281 337.89382914 -275.76578522 337.81609726 C-281.1483929 337.77679847 -286.53084129 337.7445244 -291.91357422 337.72900391 C-297.12039504 337.7137205 -302.32677738 337.67907122 -307.53340149 337.63169098 C-309.50739198 337.6169966 -311.48144511 337.60896595 -313.45549011 337.60811615 C-333.24392804 337.59104995 -350.20259771 334.78837329 -366 322 C-366.81855469 321.38382813 -367.63710938 320.76765625 -368.48046875 320.1328125 C-380.73008729 309.76336797 -386.27663585 293.22882917 -387.77761841 277.73799133 C-388.12084406 273.51215209 -388.23261128 269.29250653 -388.31640625 265.0546875 C-388.33718735 264.15879913 -388.35796844 263.26291077 -388.37937927 262.33987427 C-388.44401357 259.51831658 -388.50335293 256.69667749 -388.5625 253.875 C-388.60576744 251.94530457 -388.64938413 250.01561693 -388.69335938 248.0859375 C-388.79960464 243.39070533 -388.90110612 238.69539252 -389 234 C-393.51854497 233.9057191 -393.51854497 233.9057191 -400 235 Z M-185.390625 293.6015625 C-196.83594879 308.30663041 -198.8056109 326.27914778 -196.74365234 344.23193359 C-194.05424384 361.50946797 -184.10033299 375.30156698 -170.3125 385.6875 C-155.13409859 395.87769437 -137.79005185 398.21003229 -119.85449219 395.69970703 C-116.04561546 394.90238217 -112.55293569 393.56113841 -109 392 C-108.00226563 391.59910156 -107.00453125 391.19820312 -105.9765625 390.78515625 C-94.8864157 385.8672891 -85.48901174 377.23821852 -79 367 C-78.56300781 366.32839844 -78.12601563 365.65679688 -77.67578125 364.96484375 C-67.92034786 348.82297048 -67.34254145 330.84158178 -71.7421875 312.98828125 C-76.34521531 297.40723578 -87.3089445 284.79596131 -101.1484375 276.53125 C-131.00565278 260.4983344 -163.47011292 268.35602892 -185.390625 293.6015625 Z M-451.0078125 454.73828125 C-464.26855341 469.7931224 -467.04447231 487.55120525 -466 507 C-464.05254218 522.9369943 -454.73822954 537.96456851 -442.25 547.75 C-426.30885598 559.15094477 -410.31830922 562.53532479 -391.09375 560.7265625 C-382.16537203 559.19018577 -373.22097171 555.45584529 -366 550 C-365.29230469 549.48566406 -364.58460938 548.97132813 -363.85546875 548.44140625 C-358.88528144 544.74055368 -354.7248118 540.95254306 -351 536 C-350.24589844 535.01773438 -350.24589844 535.01773438 -349.4765625 534.015625 C-340.04596764 520.89896007 -335.86308937 503.99950427 -338.3046875 488.00390625 C-340.47164009 476.4836787 -344.52185382 466.1451496 -352 457 C-352.495 456.01 -352.495 456.01 -353 455 C-353.66 455 -354.32 455 -355 455 C-355 454.34 -355 453.68 -355 453 C-355.66 453 -356.32 453 -357 453 C-357 452.34 -357 451.68 -357 451 C-357.66 451 -358.32 451 -359 451 C-359.495 449.515 -359.495 449.515 -360 448 C-362.03579475 446.40832445 -364.01499893 445.00539513 -366.1875 443.625 C-366.80882812 443.22796875 -367.43015625 442.8309375 -368.0703125 442.421875 C-395.75231581 425.37822709 -429.04828422 431.72375784 -451.0078125 454.73828125 Z " fill="#000000" transform="translate(619,239)"/>
</svg>
